<?xml version="1.0" encoding="UTF-8"?>
<svg width="142px" height="132px" viewBox="0 0 142 132" version="1.1" xmlns="http://www.w3.org/2000/svg" xmlns:xlink="http://www.w3.org/1999/xlink">
    <title>fratboi-llama</title>
    <g id="ui-kit" stroke="none" stroke-width="1" fill="none" fill-rule="evenodd">
        <g id="llama-illustrations" transform="translate(-428.000000, -894.000000)">
            <g id="fratboi-llama" transform="translate(429.000000, 896.000000)">
                <path d="M117.367246,27 C113.186155,24.7178514 109.511368,24.4200293 105.816619,25.5905395 C105.816619,25.5905395 107.896276,20.2834185 105,14.0291539 C105,14.0291539 116.510703,9.81808754 118.457886,13.5287434 C119.778995,16.0515739 118.398001,22.9170665 117.367246,27" id="Fill-1" fill="#FCF3E4"></path>
                <path d="M117.367246,27 C113.186155,24.7178514 109.511368,24.4200293 105.816619,25.5905395 C105.816619,25.5905395 107.896276,20.2834185 105,14.0291539 C105,14.0291539 116.510703,9.81808754 118.457886,13.5287434 C119.778995,16.0515739 118.398001,22.9170665 117.367246,27 Z" id="Stroke-3" stroke="#67503E" stroke-width="2" stroke-linecap="round" stroke-linejoin="round"></path>
                <path d="M126.772822,89.5724154 C126.772822,89.5724154 132.442117,98.9597687 126.772822,106.470703 C119.213175,117.734475 107.874587,112.101713 107.874587,112.101713 C107.874587,112.101713 105.985998,123.367238 98.428114,125.245409 C90.8684671,127.123581 83.3105836,121.490818 83.3105836,121.490818 C83.3105836,121.490818 77.6412893,129 71.971995,129 C66.3027007,129 62.5219956,121.490818 62.5219956,121.490818 C62.5219956,121.490818 56.8544646,129 45.515876,125.245409 C34.1772874,121.490818 34.1772874,112.101713 34.1772874,112.101713 C34.1772874,112.101713 26.6194039,115.858056 19.0615204,110.225293 C7.72293176,100.83794 15.2808153,87.695996 15.2808153,87.695996 C15.2808153,87.695996 2.05363745,87.695996 0.163284878,72.6741283 C-1.7253043,57.6557646 13.3922261,52.0230023 13.3922261,52.0230023 C13.3922261,52.0230023 7.72293176,44.5120684 11.5018735,33.2482957 C13.0518921,28.6299561 16.9648514,26.0755028 21.0647298,24.6493539 C26.9773718,22.602988 33.2338745,22.9218567 33.2338745,22.9218567 C33.2338745,20.6494794 33.2338745,16.9894979 35.7661005,13.2138827 C37.3901814,10.7557907 40.11109,8.23988195 44.5724631,6.02356954 C55.9092883,0.392559189 65.3575244,9.77991247 65.3575244,9.77991247 C65.3575244,9.77991247 77.6412893,-4.30286948 90.8684671,1.3298929 C99.2198755,5.10375609 103.30212,9.79743273 105.192473,14.0408388 C108.006841,20.3674033 105.985998,25.7373618 105.985998,25.7373618 C109.576257,24.5547445 113.147119,24.856093 117.209966,27.1652627 C119.572907,28.4792819 122.105133,30.4871033 124.88247,33.2482957 C132.442117,40.7574775 126.772822,53.9011737 126.772822,53.9011737 C126.772822,53.9011737 140,59.5321841 140,72.6741283 C140,85.8178245 126.772822,89.5724154 126.772822,89.5724154" id="Fill-5" fill="#FCF3E4"></path>
                <path d="M126.772822,89.5724154 C126.772822,89.5724154 132.442117,98.9597687 126.772822,106.470703 C119.213175,117.734475 107.874587,112.101713 107.874587,112.101713 C107.874587,112.101713 105.985998,123.367238 98.428114,125.245409 C90.8684671,127.123581 83.3105836,121.490818 83.3105836,121.490818 C83.3105836,121.490818 77.6412893,129 71.971995,129 C66.3027007,129 62.5219956,121.490818 62.5219956,121.490818 C62.5219956,121.490818 56.8544646,129 45.515876,125.245409 C34.1772874,121.490818 34.1772874,112.101713 34.1772874,112.101713 C34.1772874,112.101713 26.6194039,115.858056 19.0615204,110.225293 C7.72293176,100.83794 15.2808153,87.695996 15.2808153,87.695996 C15.2808153,87.695996 2.05363745,87.695996 0.163284878,72.6741283 C-1.7253043,57.6557646 13.3922261,52.0230023 13.3922261,52.0230023 C13.3922261,52.0230023 7.72293176,44.5120684 11.5018735,33.2482957 C13.0518921,28.6299561 16.9648514,26.0755028 21.0647298,24.6493539 C26.9773718,22.602988 33.2338745,22.9218567 33.2338745,22.9218567 C33.2338745,20.6494794 33.2338745,16.9894979 35.7661005,13.2138827 C37.3901814,10.7557907 40.11109,8.23988195 44.5724631,6.02356954 C55.9092883,0.392559189 65.3575244,9.77991247 65.3575244,9.77991247 C65.3575244,9.77991247 77.6412893,-4.30286948 90.8684671,1.3298929 C99.2198755,5.10375609 103.30212,9.79743273 105.192473,14.0408388 C108.006841,20.3674033 105.985998,25.7373618 105.985998,25.7373618 C109.576257,24.5547445 113.147119,24.856093 117.209966,27.1652627 C119.572907,28.4792819 122.105133,30.4871033 124.88247,33.2482957 C132.442117,40.7574775 126.772822,53.9011737 126.772822,53.9011737 C126.772822,53.9011737 140,59.5321841 140,72.6741283 C140,85.8178245 126.772822,89.5724154 126.772822,89.5724154 Z" id="Stroke-7" stroke="#67503E" stroke-width="2" stroke-linecap="round" stroke-linejoin="round"></path>
                <path d="M36,12.8598996 C33.315537,16.5368497 33.315537,20.1045496 33.315537,22.318572 C33.315537,22.318572 26.6847639,22.0061849 20.4147857,24 C17.1489383,19.5924396 14.7841433,14.2682022 20.2951439,12.2556097 C27.0661222,9.7872393 32.9154847,11.4874446 36,12.8598996" id="Fill-9" fill="#FCF3E4"></path>
                <path d="M36,12.8598996 C33.315537,16.5368497 33.315537,20.1045496 33.315537,22.318572 C33.315537,22.318572 26.6847639,22.0061849 20.4147857,24 C17.1489383,19.5924396 14.7841433,14.2682022 20.2951439,12.2556097 C27.0661222,9.7872393 32.9154847,11.4874446 36,12.8598996 Z" id="Stroke-11" stroke="#67503E" stroke-width="2" stroke-linecap="round" stroke-linejoin="round"></path>
                <path d="M86,72.9912762 C86.0071147,80.724076 80.414965,86.9947624 73.5106807,87 C66.6063965,87.005231 61.0053449,80.7415236 61,73.0087238 C60.9946627,65.2776688 66.5868124,59.0052376 73.4893163,59 C80.3936005,58.994769 85.9946521,65.2584764 86,72.9912762" id="Fill-13" fill="#F4E3CA"></path>
                <path d="M78,66.4965105 C78.0015941,68.4297101 76.2117641,69.9982538 74.0023928,70 C71.7930215,70.0017433 70,68.4366891 70,66.5034895 C69.9984059,64.5702899 71.7882359,63.0017462 73.9976072,63 C76.2069785,62.9982567 77.9984037,64.5633109 78,66.4965105" id="Fill-15" fill="#67503E"></path>
                <path d="M73.996012,70 L74,75.9974348 C74,75.9974348 74.001994,76.9980039 71.000997,77 C68,77.0019902 68,76.0034143 68,76.0034143" id="Stroke-17" stroke="#67503E" stroke-width="2" stroke-linecap="round" stroke-linejoin="round"></path>
                <path d="M74,75.5019985 C74,75.5019985 75.000997,76.5039985 77.000997,76.5019985 C79.000997,76.5019985 80,75.4979985 80,75.4979985" id="Stroke-19" stroke="#67503E" stroke-width="2" stroke-linecap="round" stroke-linejoin="round"></path>
                <path d="M104,72.997009 C104,74.6540367 102.433762,75.9980038 100.501551,76 C98.5693407,76.0019918 97,74.6600187 97,73.002991 C96.9984504,71.3459633 98.5646885,70.0019962 100.49845,70 C102.43066,69.9980082 103.998449,71.3399813 104,72.997009" id="Fill-21" fill="#FCDBDB"></path>
                <path d="M52,72.997009 C52.0015496,74.6540367 50.4353115,75.9980038 48.5031009,76 C46.5693396,76.0019918 45.0015507,74.6600187 45,73.002991 C45,71.3459633 46.5662381,70.0019962 48.4984487,70 C50.43221,69.9980082 52,71.3399813 52,72.997009" id="Fill-23" fill="#FCDBDB"></path>
                <path d="M57,54 C57,57.3137143 54.9857143,60 52.5,60 C50.0142857,60 48,57.3137143 48,54 C48,50.6862857 50.0142857,48 52.5,48 C54.9857143,48 57,50.6862857 57,54" id="Fill-25" fill="#67503E"></path>
                <path d="M101,54 C101,57.3137143 98.9857143,60 96.5,60 C94.0142857,60 92,57.3137143 92,54 C92,50.6862857 94.0142857,48 96.5,48 C98.9857143,48 101,50.6862857 101,54" id="Fill-27" fill="#67503E"></path>
                <path d="M49,43.5 C49,43.5 50.8333333,42 52.6666667,42 C54.5,42 58.1666667,43.5 60,45" id="Stroke-29" stroke="#67503E" stroke-width="2" stroke-linecap="round" stroke-linejoin="round"></path>
                <path d="M102,43.5 C102,43.5 100.166667,42 98.3333333,42 C96.5,42 92.8333333,43.5 91,45" id="Stroke-31" stroke="#67503E" stroke-width="2" stroke-linecap="round" stroke-linejoin="round"></path>
            </g>
        </g>
    </g>
</svg>