<?xml version="1.0" encoding="UTF-8"?>
<svg width="141px" height="132px" viewBox="0 0 141 132" version="1.1" xmlns="http://www.w3.org/2000/svg" xmlns:xlink="http://www.w3.org/1999/xlink">
    <title>shocked-llama</title>
    <g id="ui-kit" stroke="none" stroke-width="1" fill="none" fill-rule="evenodd">
        <g id="llama-illustrations" transform="translate(-623.000000, -894.000000)">
            <g id="shocked-llama" transform="translate(624.000000, 896.000000)">
                <path d="M115.483871,27 C111.601429,24.7178514 108.189127,24.4200293 104.758289,25.5905395 C104.758289,25.5905395 106.6894,20.2834185 104,14.0291539 C104,14.0291539 114.68851,9.81808754 116.496609,13.5287434 C117.723352,16.0515739 116.441001,22.9170665 115.483871,27" id="Fill-1" fill="#FCF3E4"></path>
                <path d="M115.483871,27 C111.601429,24.7178514 108.189127,24.4200293 104.758289,25.5905395 C104.758289,25.5905395 106.6894,20.2834185 104,14.0291539 C104,14.0291539 114.68851,9.81808754 116.496609,13.5287434 C117.723352,16.0515739 116.441001,22.9170665 115.483871,27 Z" id="Stroke-3" stroke="#67503E" stroke-width="2" stroke-linecap="round" stroke-linejoin="round"></path>
                <path d="M125.867302,89.5724551 C125.867302,89.5724551 131.496101,98.9580469 125.867302,106.470725 C118.361653,117.734487 107.104054,112.10173 107.104054,112.10173 C107.104054,112.10173 105.228955,123.367243 97.7250561,125.243661 C90.2194066,127.12183 82.715508,121.489074 82.715508,121.489074 C82.715508,121.489074 77.0867087,129 71.4579093,129 C65.82911,129 62.0754099,121.489074 62.0754099,121.489074 C62.0754099,121.489074 56.4483613,129 45.1907626,125.243661 C33.9331639,121.489074 33.9331639,112.10173 33.9331639,112.10173 C33.9331639,112.10173 26.4292653,115.856317 18.9253667,110.22356 C7.66776796,100.837968 15.1716666,87.6942855 15.1716666,87.6942855 C15.1716666,87.6942855 2.03896861,87.6942855 0.162118557,72.6741849 C-1.7129807,57.6540844 13.2965673,52.0213277 13.2965673,52.0213277 C13.2965673,52.0213277 7.66776796,44.5121534 11.4197173,33.24664 C12.9586643,28.6283051 16.8436738,26.0756063 20.9142675,24.6477069 C26.7846763,22.601343 32.9964897,22.9219634 32.9964897,22.9219634 C32.9964897,20.6495884 32.9964897,16.9878586 35.5106283,13.2139992 C37.1231087,10.7541577 39.8245822,8.24000344 44.2540884,6.02369326 C55.5099363,0.390936549 64.8906849,9.77828039 64.8906849,9.77828039 C64.8906849,9.77828039 77.0867087,-4.30273537 90.2194066,1.33002134 C98.5111621,5.10388073 102.564248,9.79755265 104.441098,14.0409544 C107.235363,20.3675126 105.228955,25.7374657 105.228955,25.7374657 C108.793569,24.5548496 112.338925,24.8544457 116.372752,27.1636132 C118.718814,28.477631 121.232953,30.4872024 123.990452,33.24664 C131.496101,40.7575663 125.867302,53.8994973 125.867302,53.8994973 C125.867302,53.8994973 139,59.532254 139,72.6741849 C139,85.8161159 125.867302,89.5724551 125.867302,89.5724551" id="Fill-5" fill="#FCF3E4"></path>
                <path d="M125.867302,89.5724551 C125.867302,89.5724551 131.496101,98.9580469 125.867302,106.470725 C118.361653,117.734487 107.104054,112.10173 107.104054,112.10173 C107.104054,112.10173 105.228955,123.367243 97.7250561,125.243661 C90.2194066,127.12183 82.715508,121.489074 82.715508,121.489074 C82.715508,121.489074 77.0867087,129 71.4579093,129 C65.82911,129 62.0754099,121.489074 62.0754099,121.489074 C62.0754099,121.489074 56.4483613,129 45.1907626,125.243661 C33.9331639,121.489074 33.9331639,112.10173 33.9331639,112.10173 C33.9331639,112.10173 26.4292653,115.856317 18.9253667,110.22356 C7.66776796,100.837968 15.1716666,87.6942855 15.1716666,87.6942855 C15.1716666,87.6942855 2.03896861,87.6942855 0.162118557,72.6741849 C-1.7129807,57.6540844 13.2965673,52.0213277 13.2965673,52.0213277 C13.2965673,52.0213277 7.66776796,44.5121534 11.4197173,33.24664 C12.9586643,28.6283051 16.8436738,26.0756063 20.9142675,24.6477069 C26.7846763,22.601343 32.9964897,22.9219634 32.9964897,22.9219634 C32.9964897,20.6495884 32.9964897,16.9878586 35.5106283,13.2139992 C37.1231087,10.7541577 39.8245822,8.24000344 44.2540884,6.02369326 C55.5099363,0.390936549 64.8906849,9.77828039 64.8906849,9.77828039 C64.8906849,9.77828039 77.0867087,-4.30273537 90.2194066,1.33002134 C98.5111621,5.10388073 102.564248,9.79755265 104.441098,14.0409544 C107.235363,20.3675126 105.228955,25.7374657 105.228955,25.7374657 C108.793569,24.5548496 112.338925,24.8544457 116.372752,27.1636132 C118.718814,28.477631 121.232953,30.4872024 123.990452,33.24664 C131.496101,40.7575663 125.867302,53.8994973 125.867302,53.8994973 C125.867302,53.8994973 139,59.532254 139,72.6741849 C139,85.8161159 125.867302,89.5724551 125.867302,89.5724551 Z" id="Stroke-7" stroke="#67503E" stroke-width="2" stroke-linecap="round" stroke-linejoin="round"></path>
                <path d="M36,13.8598996 C33.4568246,17.5368497 33.4568246,21.1045496 33.4568246,23.318572 C33.4568246,23.318572 27.1750395,23.0061849 21.2350601,25 C18.1410994,20.5924396 15.9007673,15.2682022 21.1217152,13.2556097 C27.5363263,10.7872393 33.0778277,12.4874446 36,13.8598996" id="Fill-9" fill="#FCF3E4"></path>
                <path d="M36,13.8598996 C33.4568246,17.5368497 33.4568246,21.1045496 33.4568246,23.318572 C33.4568246,23.318572 27.1750395,23.0061849 21.2350601,25 C18.1410994,20.5924396 15.9007673,15.2682022 21.1217152,13.2556097 C27.5363263,10.7872393 33.0778277,12.4874446 36,13.8598996 Z" id="Stroke-11" stroke="#67503E" stroke-width="2" stroke-linecap="round" stroke-linejoin="round"></path>
                <path d="M88,72.4895724 C88.0069756,81.6023665 81.521422,88.9947818 73.5122171,89 C65.5030123,89.0069461 59.0069868,81.6249573 59,72.5121632 C58.9930244,63.3993691 65.4803233,56.0069538 73.4877829,56 C81.4952424,55.9947895 87.9930131,63.3767783 88,72.4895724" id="Fill-13" fill="#F4E3CA"></path>
                <path d="M78,67.4965105 C78.0017934,69.4297101 75.9882346,70.9982538 73.5026919,71 C71.0171492,71.0017433 69,69.4349444 69,67.5034895 C68.9982066,65.5702899 71.0117654,64.0017462 73.4973081,64 C75.9828508,63.9982567 77.9982042,65.5650556 78,67.4965105" id="Fill-15" fill="#67503E"></path>
                <path d="M104,72.9960133 C104,74.6524905 102.210014,75.9980044 100.001773,76 C97.7935323,76.0019911 96,74.6604639 96,73.0039867 C95.9982291,71.3475095 97.7882155,70.0019956 99.9982284,70 C102.206469,69.9980089 103.998228,71.3395361 104,72.9960133" id="Fill-17" fill="#FCDBDB"></path>
                <path d="M52,72.997009 C52.0017709,74.6540367 50.2117845,76 48.0035439,76 C45.7935309,76.0019918 44.0017723,74.6600187 44,73.004985 C44,71.3479574 45.7899864,70.0019962 47.9982271,70 C50.20824,69.9980082 52,71.3399813 52,72.997009" id="Fill-19" fill="#FCDBDB"></path>
                <path d="M73,71 L73,76.1428571 C73,76.1428571 68,79.5714286 68,81.2857143 C68,83 73,83 73,83 C73,83 78,83 78,81.2857143 C78,79.5714286 73,76.1428571 73,76.1428571" id="Stroke-21" stroke="#67503E" stroke-width="2" stroke-linecap="round" stroke-linejoin="round"></path>
                <path d="M57,55 C57,58.3137143 54.9857143,61 52.5,61 C50.0142857,61 48,58.3137143 48,55 C48,51.6862857 50.0142857,49 52.5,49 C54.9857143,49 57,51.6862857 57,55 Z" id="Stroke-23" stroke="#67503E" stroke-width="2" stroke-linecap="round" stroke-linejoin="round"></path>
                <path d="M97,55 C97,58.3137143 94.9857143,61 92.5,61 C90.0142857,61 88,58.3137143 88,55 C88,51.6862857 90.0142857,49 92.5,49 C94.9857143,49 97,51.6862857 97,55 Z" id="Stroke-25" stroke="#67503E" stroke-width="2" stroke-linecap="round" stroke-linejoin="round"></path>
                <path d="M107.557122,30 C107.557122,30 117.328707,35.7699377 118.829577,44.7129855 C120.333987,53.6560332 111.43496,55.1661063 109.541173,50.1823315 C107.647386,45.196778 106.142976,36.2537303 107.557122,30" id="Fill-27" fill="#BBE8F2"></path>
            </g>
        </g>
    </g>
</svg>