<?xml version="1.0" encoding="UTF-8"?>
<svg width="262px" height="361px" viewBox="0 0 262 361" version="1.1" xmlns="http://www.w3.org/2000/svg" xmlns:xlink="http://www.w3.org/1999/xlink">
    <title>llama-mascot copy</title>
    <g id="home" stroke="none" stroke-width="1" fill="none" fill-rule="evenodd">
        <g id="Tablet" transform="translate(-56.000000, -596.000000)">
            <g id="llama-mascot-copy" transform="translate(56.000000, 596.000000)">
                <path d="M87.5568182,277.237975 C88.8977273,278.479747 89.7272727,280.256962 89.7272727,282.227848 C89.7272727,285.258228 87.75,287.832911 85.0227273,288.732911 C85.125,289.2 85.1818182,289.701266 85.1818182,290.202532 C85.1818182,292.75443 83.7840909,294.975949 81.7159091,296.160759 C81.75,296.44557 81.7727273,296.741772 81.7727273,297.037975 C81.7727273,299.373418 80.6022727,301.435443 78.8181818,302.665823 C79.9545455,303.873418 80.6363636,305.502532 80.6363636,307.291139 C80.6363636,309.934177 79.1363636,312.224051 76.9545455,313.363291 C78.5,314.605063 79.5,316.53038 79.5,318.683544 C79.5,321.098734 78.2386364,323.229114 76.3522727,324.436709 C76.9090909,325.427848 77.2272727,326.578481 77.2272727,327.797468 C77.2272727,330.440506 75.7159091,332.741772 73.5227273,333.881013 C74.4318182,335.031646 74.9545455,336.478481 74.9545455,338.050633 C74.9545455,341.821519 71.8977273,344.886076 68.1363636,344.886076 C68,344.886076 67.8636364,344.886076 67.7386364,344.863291 C68,345.581013 68.1363636,346.355696 68.1363636,347.164557 C68.1363636,347.358228 68.125,347.551899 68.1136364,347.734177 C67.8181818,351.243038 64.8863636,354 61.3181818,354 C57.75,354 54.8181818,351.243038 54.5227273,347.734177 C54.5113636,347.551899 54.5,347.358228 54.5,347.164557 C54.5,346.777215 54.5340909,346.389873 54.6022727,346.025316 L54.5,346.025316 C50.7386364,346.025316 47.6818182,342.960759 47.6818182,339.189873 L47.6818182,339.087342 C44.4545455,338.551899 42,335.737975 42,332.35443 C42,328.731646 44.8181818,325.76962 48.375,325.541772 L55.6363636,266.278481 L80.1136364,266.278481 C81.3522727,264.877215 83.1704545,264 85.1818182,264 C88.9431818,264 92,267.064557 92,270.835443 C92,273.774684 90.1477273,276.281013 87.5568182,277.237975" id="left-leg" fill="#F3EADB"></path>
                <path d="M68,348 C67.6956522,351.36 64.6755853,354 61,354 C57.3244147,354 54.3043478,351.36 54,348 L68,348 Z" id="left-foot-2" fill="#6B3329"></path>
                <path d="M213.476667,284.237975 C214.841765,285.479747 215.686275,287.256962 215.686275,289.227848 C215.686275,292.258228 213.673333,294.832911 210.896863,295.732911 C211.00098,296.2 211.058824,296.701266 211.058824,297.202532 C211.058824,299.75443 209.635882,301.975949 207.530392,303.160759 C207.565098,303.44557 207.588235,303.741772 207.588235,304.037975 C207.588235,306.373418 206.396667,308.435443 204.580392,309.665823 C205.737255,310.873418 206.431373,312.502532 206.431373,314.291139 C206.431373,316.934177 204.904314,319.224051 202.683137,320.363291 C204.256471,321.605063 205.27451,323.53038 205.27451,325.683544 C205.27451,328.098734 203.990392,330.229114 202.07,331.436709 C202.636863,332.427848 202.960784,333.578481 202.960784,334.797468 C202.960784,337.440506 201.422157,339.741772 199.189412,340.881013 C200.114902,342.031646 200.647059,343.478481 200.647059,345.050633 C200.647059,348.821519 197.535098,351.886076 193.705882,351.886076 C193.567059,351.886076 193.428235,351.886076 193.30098,351.863291 C193.509216,352.410127 193.636471,352.991139 193.682745,353.594937 C193.694314,353.788608 193.705882,353.970886 193.705882,354.164557 C193.705882,357.935443 190.593922,361 186.764706,361 C182.93549,361 179.823529,357.935443 179.823529,354.164557 C179.823529,353.970886 179.835098,353.788608 179.846667,353.594937 C179.869804,353.401266 179.892941,353.207595 179.927647,353.025316 L179.823529,353.025316 C175.994314,353.025316 172.882353,349.960759 172.882353,346.189873 L172.882353,346.087342 C169.596863,345.551899 167.098039,342.737975 167.098039,339.35443 C167.098039,337.31519 168.000392,335.481013 169.446471,334.239241 L159,297.202532 L204.129216,278.017722 C204.117647,277.960759 204.117647,277.892405 204.117647,277.835443 C204.117647,274.064557 207.229608,271 211.058824,271 C214.888039,271 218,274.064557 218,277.835443 C218,280.774684 216.114314,283.281013 213.476667,284.237975" id="right-leg" fill="#F3EADB"></path>
                <path d="M194,354.538462 C194,358.103077 190.861667,361 187,361 C183.138333,361 180,358.103077 180,354.538462 C180,354.355385 180.011667,354.183077 180.023333,354 L193.976667,354 C193.988333,354.183077 194,354.355385 194,354.538462" id="right-foot-2" fill="#6B3329"></path>
                <path d="M258.90886,66.4367562 C260.770439,67.6637588 262,69.7737446 262,72.1704133 C262,74.567082 260.770439,76.6770678 258.90886,77.9040704 C260.770439,79.131073 262,81.2410589 262,83.6377275 C262,86.0343962 260.770439,88.144382 258.90886,89.3713846 C260.770439,90.5983873 262,92.7083731 262,95.1050417 C262,97.5017104 260.770439,99.6116962 258.90886,100.838699 C260.770439,102.065701 262,104.175687 262,106.572356 C262,108.969025 260.770439,111.07901 258.90886,112.306013 C260.770439,113.533016 262,115.643001 262,118.03967 C262,120.436339 260.770439,122.546325 258.90886,123.773327 C260.770439,125.00033 262,127.110316 262,129.506984 C262,131.903653 260.770439,134.013639 258.90886,135.240641 C260.770439,136.467644 262,138.57763 262,140.974299 C262,143.370967 260.770439,145.480953 258.90886,146.707956 C260.770439,147.934958 262,150.044944 262,152.441613 C262,154.838281 260.770439,156.948267 258.90886,158.17527 C260.770439,159.402273 262,161.512258 262,163.908927 C262,166.305596 260.770439,168.415581 258.90886,169.642584 C260.770439,170.869587 262,172.979573 262,175.376241 C262,177.77291 260.770439,179.882896 258.90886,181.109898 C260.770439,182.336901 262,184.446887 262,186.843555 C262,189.503972 260.483158,191.808902 258.276842,192.955634 C259.839649,194.205571 260.850877,196.143547 260.850877,198.31087 C260.850877,201.269437 258.977807,203.792246 256.357807,204.7555 C257.713772,206.005437 258.552632,207.794338 258.552632,209.778184 C258.552632,213.057836 256.254386,215.798524 253.174737,216.486563 C254.381316,217.713565 255.105263,219.387793 255.105263,221.245498 C255.105263,224.52515 252.807018,227.265838 249.727368,227.953877 C250.933947,229.180879 251.657895,230.855107 251.657895,232.712812 C251.657895,236.256212 248.957456,239.180377 245.498596,239.558799 C245.774386,240.28124 245.912281,241.072484 245.912281,241.886664 C245.912281,245.430064 243.211842,248.354229 239.752982,248.73265 C240.028772,249.455091 240.166667,250.246336 240.166667,251.060515 C240.166667,254.856196 237.075526,257.940904 233.27193,257.940904 L233.168509,257.940904 C233.237456,258.307858 233.27193,258.697746 233.27193,259.087635 C233.27193,262.493427 230.789825,265.325854 227.526316,265.864818 L227.526316,265.968023 C227.526316,269.763704 224.435175,272.848412 220.631579,272.848412 C219.815702,272.848412 219.022807,272.710804 218.29886,272.435589 C217.919649,275.88725 214.989386,278.582069 211.438596,278.582069 L211.335175,278.582069 C210.795088,281.838786 207.956754,284.315726 204.54386,284.315726 C204.038246,284.315726 203.532632,284.25839 203.061491,284.155184 C202.153684,286.907339 199.556667,288.902652 196.5,288.902652 C195.684123,288.902652 194.891228,288.765044 194.167281,288.489829 C193.78807,291.94149 190.857807,294.636309 187.307018,294.636309 C186.973772,294.636309 186.652018,294.613374 186.330263,294.556038 C186.950789,295.576629 187.307018,296.792164 187.307018,298.076503 C187.307018,301.08094 185.376491,303.638151 182.687544,304.567003 C183.434474,305.667865 183.859649,306.975139 183.859649,308.397086 C183.859649,311.195111 182.170439,313.614714 179.768772,314.681174 C180.182456,315.55269 180.412281,316.538879 180.412281,317.570937 C180.412281,319.967606 179.182719,322.077592 177.32114,323.304595 C179.182719,324.531597 180.412281,326.641583 180.412281,329.038252 C180.412281,331.698669 178.895439,334.003599 176.689123,335.15033 C176.872982,335.758098 176.964912,336.400267 176.964912,337.065372 C176.964912,339.416171 175.781316,341.491755 173.977193,342.730225 C175.126316,343.94576 175.815789,345.585586 175.815789,347.385954 C175.815789,350.206914 174.115088,352.637984 171.678947,353.692977 C170.840088,354.059931 169.897807,354.266343 168.921053,354.266343 L168.817632,354.266343 C168.277544,357.52306 165.439211,360 162.026316,360 C158.41807,360 155.453333,357.22491 155.154561,353.692977 C155.14307,353.5095 155.131579,353.314556 155.131579,353.119611 L155.131579,353.016406 C151.86807,352.477442 149.385965,349.645015 149.385965,346.239223 C149.385965,345.367707 149.546842,344.54206 149.845614,343.77375 C148.834386,342.58115 148.236842,341.04453 148.236842,339.358834 C148.236842,337.776345 148.765439,336.319996 149.684737,335.161797 C147.46693,334.015066 145.938596,331.698669 145.938596,329.038252 C145.938596,328.155268 146.110965,327.306687 146.421228,326.52691 C144.732018,325.276973 143.640351,323.270193 143.640351,321.011132 C143.640351,319.245165 144.306842,317.639741 145.41,316.424206 C144.306842,315.208671 143.640351,313.603247 143.640351,311.83728 C143.640351,310.415333 144.065526,309.10806 144.812456,308.007197 C142.123509,307.078345 140.192982,304.521134 140.192982,301.516698 C137.837281,301.516698 135.757368,300.335564 134.516316,298.535196 C133.298246,299.681927 131.655,300.369966 129.850877,300.369966 C127.449211,300.369966 125.334825,299.142963 124.105263,297.285259 C122.875702,299.142963 120.761316,300.369966 118.359649,300.369966 C116.268246,300.369966 114.383684,299.429646 113.13114,297.96183 C112.016491,298.764542 110.649035,299.223235 109.166667,299.223235 C106.810965,299.223235 104.731053,298.042101 103.49,296.241733 C102.27193,297.388464 100.628684,298.076503 98.8245614,298.076503 C96.1585965,298.076503 93.8488596,296.562818 92.6997368,294.361093 C91.447193,295.920648 89.5051754,296.929772 87.3333333,296.929772 C84.6673684,296.929772 82.3576316,295.416086 81.2085088,293.214362 C79.9559649,294.773917 78.0139474,295.78304 75.8421053,295.78304 C74.2563158,295.78304 72.7969298,295.255544 71.6363158,294.338159 C70.487193,296.55135 68.1659649,298.076503 65.5,298.076503 C64.6151754,298.076503 63.7648246,297.904494 62.9834211,297.594876 C61.7308772,299.280571 59.7199123,300.369966 57.4561404,300.369966 C57.4561404,303.030383 55.9392982,305.335313 53.7329825,306.482045 C53.9168421,307.089812 54.0087719,307.731982 54.0087719,308.397086 C54.0087719,310.449735 53.1009649,312.295973 51.6645614,313.557377 C53.1009649,314.818782 54.0087719,316.66502 54.0087719,318.717669 C54.0087719,321.148739 52.7332456,323.293127 50.8257018,324.508663 C51.3887719,325.506319 51.7105263,326.664518 51.7105263,327.89152 C51.7105263,329.978571 50.7682456,331.859211 49.2973684,333.109148 C50.1017544,334.221478 50.5614035,335.586088 50.5614035,337.065372 C50.5614035,339.611115 49.1709649,341.835774 47.1025439,343.028375 C47.010614,345.929605 45.1145614,348.383611 42.4945614,349.289529 C42.5175439,349.415669 42.5175439,349.541809 42.5175439,349.679417 C42.5175439,353.475098 39.4264035,356.559806 35.622807,356.559806 C31.8192105,356.559806 28.7280702,353.475098 28.7280702,349.679417 C28.7280702,349.541809 28.7280702,349.415669 28.7510526,349.289529 C26.0621053,348.360676 24.1315789,345.803465 24.1315789,342.799029 C24.1315789,342.500879 24.1545614,342.202728 24.1890351,341.916045 C22.0976316,340.723445 20.6842105,338.487319 20.6842105,335.91864 C20.6842105,334.691638 21.0059649,333.533439 21.5690351,332.535782 C19.6614912,331.320247 18.3859649,329.175859 18.3859649,326.744789 C18.3859649,324.94442 19.0754386,323.304595 20.2245614,322.089059 C18.4204386,320.850589 17.2368421,318.775005 17.2368421,316.424206 C17.2368421,314.440361 18.0757018,312.65146 19.4316667,311.401522 C16.8116667,310.438268 14.9385965,307.915459 14.9385965,304.956892 C14.9385965,302.973046 15.7774561,301.184145 17.1334211,299.934208 C14.5134211,298.970954 12.6403509,296.448145 12.6403509,293.489578 C12.6403509,291.322255 13.6515789,289.384279 15.214386,288.134342 C13.0080702,286.98761 11.4912281,284.68268 11.4912281,282.022263 C11.4912281,279.854941 12.5024561,277.916965 14.0652632,276.667028 C11.8589474,275.520296 10.3421053,273.215366 10.3421053,270.554949 C10.3421053,268.697244 11.0660526,267.023016 12.2726316,265.796014 C9.19298246,265.107975 6.89473684,262.367287 6.89473684,259.087635 C6.89473684,256.920313 7.90596491,254.982336 9.46877193,253.732399 C7.26245614,252.585668 5.74561404,250.280738 5.74561404,247.620321 C5.74561404,246.141037 6.20526316,244.776427 7.00964912,243.664097 C5.53877193,242.41416 4.59649123,240.533521 4.59649123,238.446469 C4.59649123,236.279147 5.6077193,234.341171 7.17052632,233.091234 C4.96421053,231.944502 3.44736842,229.639572 3.44736842,226.979155 C3.44736842,225.178787 4.13684211,223.538961 5.28596491,222.323426 C3.48184211,221.084956 2.29824561,219.009372 2.29824561,216.658572 C2.29824561,213.998155 3.81508772,211.693225 6.02140351,210.546494 C4.45859649,209.296557 3.44736842,207.358581 3.44736842,205.191258 C3.44736842,202.186822 5.37789474,199.629611 8.06684211,198.700758 C7.31991228,197.599896 6.89473684,196.292622 6.89473684,194.870675 C6.89473684,192.049716 8.5954386,189.618645 11.0315789,188.563653 C8.5954386,187.50866 6.89473684,185.077589 6.89473684,182.25663 C6.89473684,182.119022 6.89473684,181.992882 6.9177193,181.866741 C4.22877193,180.937889 2.29824561,178.380678 2.29824561,175.376241 C2.29824561,173.793752 2.82684211,172.337403 3.74614035,171.179204 C1.52833333,170.032473 0,167.716075 0,165.055658 C0,162.039755 1.94201754,159.482544 4.64245614,158.553691 C5.02166667,155.113497 7.95192982,152.441613 11.4912281,152.441613 C13.2608772,152.441613 14.8696491,153.106717 16.0877193,154.207579 C17.3057895,153.106717 18.9145614,152.441613 20.6842105,152.441613 C24.0396491,152.441613 26.8435088,154.849749 27.4525439,158.026195 C28.4867544,157.395493 29.7163158,157.028538 31.0263158,157.028538 C33.6922807,157.028538 36.0020175,158.542224 37.1511404,160.743948 C38.4036842,159.184394 40.3457018,158.17527 42.5175439,158.17527 C44.287193,158.17527 45.8959649,158.840374 47.1140351,159.941236 C48.3321053,158.840374 49.9408772,158.17527 51.7105263,158.17527 C53.2963158,158.17527 54.7557018,158.702766 55.9163158,159.620151 C57.0654386,157.40696 59.3866667,155.881807 62.0526316,155.881807 C64.1095614,155.881807 65.9596491,156.787725 67.2236842,158.221139 C68.4877193,156.787725 70.337807,155.881807 72.3947368,155.881807 C74.4516667,155.881807 76.3017544,156.787725 77.5657895,158.221139 C78.8298246,156.787725 80.6799123,155.881807 82.7368421,155.881807 C84.7937719,155.881807 86.6438596,156.787725 87.9078947,158.221139 C89.1719298,156.787725 91.0220175,155.881807 93.0789474,155.881807 C95.1358772,155.881807 96.9859649,156.787725 98.25,158.221139 C99.5140351,156.787725 101.364123,155.881807 103.421053,155.881807 C105.477982,155.881807 107.32807,156.787725 108.592105,158.221139 C109.85614,156.787725 111.706228,155.881807 113.763158,155.881807 C115.567281,155.881807 117.210526,156.569846 118.428596,157.716577 C119.669649,155.916209 121.749561,154.735076 124.105263,154.735076 C125.874912,154.735076 127.483684,155.40018 128.701754,156.501042 C129.919825,155.40018 131.528596,154.735076 133.298246,154.735076 C135.102368,154.735076 136.745614,155.423114 137.963684,156.569846 C139.204737,154.769478 141.284649,153.588344 143.640351,153.588344 C145.628333,153.588344 147.420965,154.425458 148.673509,155.778601 C149.638772,153.164054 152.166842,151.294881 155.131579,151.294881 C156.441579,151.294881 157.67114,151.661835 158.705351,152.292538 C159.314386,149.116092 162.118246,146.707956 165.473684,146.707956 C165.611579,146.707956 165.749474,146.707956 165.875877,146.73089 C165.611579,146.00845 165.473684,145.228672 165.473684,144.414493 C165.473684,141.364187 167.473158,138.772574 170.231053,137.866656 C170.127632,137.396497 170.070175,136.891935 170.070175,136.387373 C170.070175,133.990704 171.299737,131.880718 173.161316,130.653716 C171.299737,129.426713 170.070175,127.316727 170.070175,124.920059 C170.070175,122.52339 171.299737,120.413404 173.161316,119.186402 C171.299737,117.959399 170.070175,115.849413 170.070175,113.452744 C170.070175,111.056076 171.299737,108.94609 173.161316,107.719087 C171.299737,106.492085 170.070175,104.382099 170.070175,101.98543 C170.070175,99.5887616 171.299737,97.4787758 173.161316,96.2517732 C171.299737,95.0247705 170.070175,92.9147847 170.070175,90.5181161 C170.070175,88.1214474 171.299737,86.0114616 173.161316,84.7844589 C171.299737,83.5574563 170.070175,81.4474705 170.070175,79.0508018 C170.070175,76.6541332 171.299737,74.5441474 173.161316,73.3171447 C171.299737,72.0901421 170.070175,69.9801563 170.070175,67.5834876 C170.070175,65.186819 171.299737,63.0768331 173.161316,61.8498305 C171.299737,60.6228279 170.070175,58.5128421 170.070175,56.1161734 C170.070175,52.5727733 172.770614,49.6486082 176.229474,49.2701868 C175.953684,48.547746 175.815789,47.7565014 175.815789,46.9423221 C175.815789,44.5112514 177.079825,42.378331 178.99886,41.1513284 C178.90693,38.7546597 178.964386,35.9795697 179.102281,33.0668719 C179.596404,23.6063376 181.159211,12.6206506 182.710526,7.95345374 C182.722018,7.91905179 182.733509,7.89611716 182.745,7.86171522 C184.388246,2.999574 187.192105,-0.108068154 191.570263,0.981326696 C195.212982,1.89871183 197.649123,5.3389061 197.649123,9.08871784 L197.649123,26.7025125 C197.729561,26.7254471 197.81,26.7483817 197.890439,26.7827837 C198.683333,23.8700859 201.372281,21.7142308 204.54386,21.7142308 C207.025965,21.7142308 209.209298,23.0329719 210.415877,25.00535 C211.530526,22.7233544 213.886228,21.1408651 216.609649,21.1408651 C219.149211,21.1408651 221.367018,22.5054755 222.550614,24.5466574 C223.377982,24.202638 224.274298,24.0076936 225.22807,24.0076936 C227.353947,24.0076936 229.261491,24.970948 230.537018,26.4846335 C231.042632,26.3699604 231.571228,26.3011565 232.122807,26.3011565 C232.513509,26.3011565 232.892719,26.3355584 233.27193,26.4043623 L233.27193,9.20339098 C233.27193,6.50857215 234.294649,3.85962256 236.328596,2.10512349 C239.293333,-0.452087581 243.154386,-0.53235878 244.763158,1.07306521 C246.509825,3.25185491 247.762368,6.25629123 248.635702,10.6138706 C249.715877,15.9117698 250.221491,23.182047 250.416842,33.365022 C250.439825,34.9016421 250.462807,36.4955988 250.474298,38.1583594 C252.462281,38.8349309 254.025088,40.405953 254.714561,42.378331 C254.840965,42.3553964 254.967368,42.3553964 255.105263,42.3553964 C258.90886,42.3553964 262,45.4401039 262,49.2357849 C262,51.6324536 260.770439,53.7424394 258.90886,54.969442 C260.770439,56.1964446 262,58.3064304 262,60.7030991 C262,63.0997678 260.770439,65.2097536 258.90886,66.4367562" id="body" fill="#FCF3E4"></path>
                <path d="M43,350 C43,353.861667 39.8616667,357 36,357 C32.1383333,357 29,353.861667 29,350 L43,350 Z" id="left-foot-1" fill="#6B3329"></path>
                <path d="M172,353 C171.136996,353.349091 170.167594,353.545455 169.162726,353.545455 L169.056328,353.545455 C168.500695,356.643636 165.580668,359 162.069541,359 C158.357441,359 155.307371,356.36 155,353 L172,353 Z" id="right-foot-1" fill="#6B3329"></path>
                <path d="M190,22.8771611 C190,27.4267516 187.592998,30.8389445 185.185996,31.9763421 C183.886214,32.5905369 181.202407,32.8748863 179,33 C179.517505,23.6164695 181.154267,12.7202002 182.778993,8.09099181 C182.791028,8.05686988 182.803063,8.03412193 182.815098,8 C183.946389,8.20473157 185.294311,8.8189263 186.389497,10.3657871 C188.796499,13.77798 190,18.3275705 190,22.8771611" id="ear-left" fill="#F4E5C8"></path>
                <path d="M250,34 C246.488636,31.7394153 241,30.3366935 241,30.3366935 C241,30.3366935 241,25.6995968 243.272727,17.5846774 C244.25,14.1184476 246.25,12.124496 248.238636,11 C249.306818,16.3558468 249.806818,23.7056452 250,34" id="ear-right" fill="#F4E5C8"></path>
                <path d="M230,81.5 C230,91.716625 222.836571,100 214,100 C205.163429,100 198,91.716625 198,81.5 C198,71.283375 205.163429,63 214,63 C222.836571,63 230,71.283375 230,81.5" id="nose-shape" fill="#F4E3CA"></path>
                <path d="M185,72 C185,68.1383333 187.01375,65 189.5,65 C191.98625,65 194,68.1383333 194,72" id="eye-left" stroke="#67503E" stroke-width="3" stroke-linecap="round" stroke-linejoin="round"></path>
                <path d="M234,72 C234,68.1383333 236.01375,65 238.5,65 C240.98625,65 243,68.1383333 243,72" id="eye-right" stroke="#67503E" stroke-width="3" stroke-linecap="round" stroke-linejoin="round"></path>
                <path d="M219,74.5 C219,76.985125 216.5371,79 213.5,79 C210.4629,79 208,76.985125 208,74.5 C208,72.014875 210.4629,70 213.5,70 C216.5371,70 219,72.014875 219,74.5" id="nose" fill="#67503E"></path>
                <path d="M214,79 L214,85.8571429 C214,85.8571429 214,87 210.5,87 C207,87 207,85.8571429 207,85.8571429" id="mouth-left" stroke="#67503E" stroke-width="3" stroke-linecap="round" stroke-linejoin="round"></path>
                <path d="M214,86 C214,86 215.166667,87 217.5,87 C219.833333,87 221,86 221,86" id="mouth-right" stroke="#67503E" stroke-width="3" stroke-linecap="round" stroke-linejoin="round"></path>
                <path d="M254,81.5 C254,83.4331667 251.761111,85 249,85 C246.238889,85 244,83.4331667 244,81.5 C244,79.5668333 246.238889,78 249,78 C251.761111,78 254,79.5668333 254,81.5" id="blush-right" fill="#FCDBDB"></path>
                <path d="M187,81.5 C187,83.4331667 184.761111,85 182,85 C179.238889,85 177,83.4331667 177,81.5 C177,79.5668333 179.238889,78 182,78 C184.761111,78 187,79.5668333 187,81.5" id="blush-left" fill="#FCDBDB"></path>
            </g>
        </g>
    </g>
</svg>