<?xml version="1.0" encoding="UTF-8"?>
<svg width="344px" height="475px" viewBox="0 0 344 475" version="1.1" xmlns="http://www.w3.org/2000/svg" xmlns:xlink="http://www.w3.org/1999/xlink">
    <title>llama-mascot-brown</title>
    <g id="care" stroke="none" stroke-width="1" fill="none" fill-rule="evenodd">
        <g id="Desktop-revision-1" transform="translate(-49.000000, -1491.000000)">
            <g id="llama-mascot-brown" transform="translate(49.000000, 1491.000000)">
                <path d="M115.135,364.503544 C116.905,366.145443 118,368.495316 118,371.101266 C118,375.108101 115.39,378.512405 111.79,379.702405 C111.925,380.32 112,380.982785 112,381.64557 C112,385.019747 110.155,387.957089 107.425,389.523671 C107.47,389.900253 107.5,390.291899 107.5,390.683544 C107.5,393.771519 105.955,396.497975 103.6,398.12481 C105.1,399.721519 106,401.87557 106,404.240506 C106,407.73519 104.02,410.762911 101.14,412.269241 C103.18,413.911139 104.5,416.456835 104.5,419.303797 C104.5,422.497215 102.835,425.314051 100.345,426.910759 C101.08,428.221266 101.5,429.742658 101.5,431.35443 C101.5,434.849114 99.505,437.891899 96.61,439.398228 C97.81,440.91962 98.5,442.832658 98.5,444.911392 C98.5,449.897342 94.465,453.949367 89.5,453.949367 C89.32,453.949367 89.14,453.949367 88.975,453.919241 C89.32,454.868228 89.5,455.892532 89.5,456.962025 C89.5,457.218101 89.485,457.474177 89.47,457.71519 C89.08,462.354684 85.21,466 80.5,466 C75.79,466 71.92,462.354684 71.53,457.71519 C71.515,457.474177 71.5,457.218101 71.5,456.962025 C71.5,456.449873 71.545,455.937722 71.635,455.455696 L71.5,455.455696 C66.535,455.455696 62.5,451.403671 62.5,446.417722 L62.5,446.282152 C58.24,445.574177 55,441.853544 55,437.379747 C55,432.58962 58.72,428.673165 63.415,428.371899 L73,350.012658 L105.31,350.012658 C106.945,348.159873 109.345,347 112,347 C116.965,347 121,351.052025 121,356.037975 C121,359.924304 118.555,363.238228 115.135,364.503544" id="left-leg" fill="#D5B18D"></path>
                <path d="M89,458 C88.6086957,462.48 84.7257525,466 80,466 C75.2742475,466 71.3913043,462.48 71,458 L89,458 Z" id="left-foot-2" fill="#6B3329"></path>
                <path d="M281.096667,373.503544 C282.878235,375.145443 283.980392,377.495316 283.980392,380.101266 C283.980392,384.108101 281.353333,387.512405 277.729804,388.702405 C277.865686,389.32 277.941176,389.982785 277.941176,390.64557 C277.941176,394.019747 276.084118,396.957089 273.336275,398.523671 C273.381569,398.900253 273.411765,399.291899 273.411765,399.683544 C273.411765,402.771519 271.856667,405.497975 269.486275,407.12481 C270.996078,408.721519 271.901961,410.87557 271.901961,413.240506 C271.901961,416.73519 269.90902,419.762911 267.010196,421.269241 C269.063529,422.911139 270.392157,425.456835 270.392157,428.303797 C270.392157,431.497215 268.716275,434.314051 266.21,435.910759 C266.949804,437.221266 267.372549,438.742658 267.372549,440.35443 C267.372549,443.849114 265.36451,446.891899 262.450588,448.398228 C263.658431,449.91962 264.352941,451.832658 264.352941,453.911392 C264.352941,458.897342 260.291569,462.949367 255.294118,462.949367 C255.112941,462.949367 254.931765,462.949367 254.765686,462.919241 C255.037451,463.642278 255.203529,464.410506 255.263922,465.208861 C255.27902,465.464937 255.294118,465.705949 255.294118,465.962025 C255.294118,470.947975 251.232745,475 246.235294,475 C241.237843,475 237.176471,470.947975 237.176471,465.962025 C237.176471,465.705949 237.191569,465.464937 237.206667,465.208861 C237.236863,464.952785 237.267059,464.696709 237.312353,464.455696 L237.176471,464.455696 C232.17902,464.455696 228.117647,460.403671 228.117647,455.417722 L228.117647,455.282152 C223.829804,454.574177 220.568627,450.853544 220.568627,446.379747 C220.568627,443.683418 221.746275,441.258228 223.633529,439.616329 L210,390.64557 L268.897451,365.278987 C268.882353,365.203671 268.882353,365.113291 268.882353,365.037975 C268.882353,360.052025 272.943725,356 277.941176,356 C282.938627,356 287,360.052025 287,365.037975 C287,368.924304 284.53902,372.238228 281.096667,373.503544" id="right-leg" fill="#D5B18D"></path>
                <path d="M255,465.769231 C255,470.861538 250.965,475 246,475 C241.035,475 237,470.861538 237,465.769231 C237,465.507692 237.015,465.261538 237.03,465 L254.97,465 C254.985,465.261538 255,465.507692 255,465.769231" id="right-foot-2" fill="#6B3329"></path>
                <path d="M344,94.8239042 C344,97.9728605 342.385614,100.745147 339.941404,102.357293 C342.385614,103.969438 344,106.741725 344,109.890681 C344,113.039637 342.385614,115.811924 339.941404,117.424069 C342.385614,119.036214 344,121.808501 344,124.957458 C344,128.106414 342.385614,130.878701 339.941404,132.490846 C342.385614,134.102991 344,136.875278 344,140.024234 C344,143.173191 342.385614,145.945478 339.941404,147.557623 C342.385614,149.169768 344,151.942055 344,155.091011 C344,158.239967 342.385614,161.012254 339.941404,162.624399 C342.385614,164.236545 344,167.008831 344,170.157788 C344,173.306744 342.385614,176.079031 339.941404,177.691176 C342.385614,179.303321 344,182.075608 344,185.224565 C344,188.373521 342.385614,191.145808 339.941404,192.757953 C342.385614,194.370098 344,197.142385 344,200.291341 C344,203.440298 342.385614,206.212585 339.941404,207.82473 C342.385614,209.436875 344,212.209162 344,215.358118 C344,218.507074 342.385614,221.279361 339.941404,222.891506 C342.385614,224.503651 344,227.275938 344,230.424895 C344,233.573851 342.385614,236.346138 339.941404,237.958283 C342.385614,239.570428 344,242.342715 344,245.491671 C344,248.987164 342.008421,252.015586 339.111579,253.522263 C341.163509,255.164542 342.491228,257.710827 342.491228,260.558448 C342.491228,264.445677 340.03193,267.760367 336.59193,269.025977 C338.372281,270.668255 339.473684,273.018673 339.473684,275.625225 C339.473684,279.934323 336.45614,283.535283 332.412632,284.439289 C333.996842,286.051434 334.947368,288.251184 334.947368,290.692002 C334.947368,295.0011 331.929825,298.602059 327.886316,299.506066 C329.470526,301.118211 330.421053,303.317961 330.421053,305.758778 C330.421053,310.414412 326.875439,314.25644 322.334035,314.753644 C322.69614,315.702851 322.877193,316.742459 322.877193,317.8122 C322.877193,322.467834 319.331579,326.309862 314.790175,326.807065 C315.152281,327.756272 315.333333,328.79588 315.333333,329.865621 C315.333333,334.852724 311.274737,338.905687 306.280702,338.905687 L306.144912,338.905687 C306.235439,339.387824 306.280702,339.900094 306.280702,340.412365 C306.280702,344.887197 303.021754,348.608691 298.736842,349.31683 L298.736842,349.452431 C298.736842,354.439534 294.678246,358.492497 289.684211,358.492497 C288.612982,358.492497 287.57193,358.311696 286.621404,357.950093 C286.123509,362.485193 282.27614,366.025885 277.614035,366.025885 L277.478246,366.025885 C276.769123,370.30485 273.042456,373.559274 268.561404,373.559274 C267.897544,373.559274 267.233684,373.48394 266.615088,373.348339 C265.423158,376.964365 262.013333,379.585984 258,379.585984 C256.928772,379.585984 255.887719,379.405183 254.937193,379.04358 C254.439298,383.57868 250.59193,387.119373 245.929825,387.119373 C245.492281,387.119373 245.069825,387.089239 244.647368,387.013905 C245.462105,388.354848 245.929825,389.951927 245.929825,391.639406 C245.929825,395.586901 243.395088,398.946792 239.864561,400.167201 C240.845263,401.613612 241.403509,403.331224 241.403509,405.199505 C241.403509,408.875798 239.185614,412.054888 236.032281,413.456098 C236.575439,414.601173 236.877193,415.896916 236.877193,417.252926 C236.877193,420.401882 235.262807,423.174169 232.818596,424.786314 C235.262807,426.39846 236.877193,429.170747 236.877193,432.319703 C236.877193,435.815195 234.885614,438.843617 231.988772,440.350295 C232.230175,441.148834 232.350877,441.992573 232.350877,442.866447 C232.350877,445.955136 230.796842,448.682222 228.42807,450.309434 C229.936842,451.906513 230.842105,454.061062 230.842105,456.426546 C230.842105,460.132973 228.609123,463.327129 225.410526,464.713273 C224.309123,465.19541 223.07193,465.466612 221.789474,465.466612 L221.653684,465.466612 C220.944561,469.745576 217.217895,473 212.736842,473 C207.999298,473 204.106667,469.35384 203.714386,464.713273 C203.699298,464.472204 203.684211,464.216069 203.684211,463.959934 L203.684211,463.824333 C199.399298,463.116194 196.140351,459.394701 196.140351,454.919868 C196.140351,453.774793 196.351579,452.689985 196.74386,451.680511 C195.41614,450.113566 194.631579,448.094618 194.631579,445.879802 C194.631579,443.800587 195.325614,441.887106 196.532632,440.365362 C193.620702,438.858684 191.614035,435.815195 191.614035,432.319703 C191.614035,431.159561 191.840351,430.04462 192.247719,429.020079 C190.029825,427.3778 188.596491,424.741114 188.596491,421.772959 C188.596491,419.452676 189.471579,417.343327 190.92,415.746248 C189.471579,414.14917 188.596491,412.039821 188.596491,409.719538 C188.596491,407.851257 189.154737,406.133645 190.135439,404.687234 C186.604912,403.466825 184.070175,400.106934 184.070175,396.159439 C180.977193,396.159439 178.246316,394.607561 176.616842,392.242077 C175.017544,393.748754 172.86,394.652761 170.491228,394.652761 C167.337895,394.652761 164.561754,393.040616 162.947368,390.599798 C161.332982,393.040616 158.556842,394.652761 155.403509,394.652761 C152.657544,394.652761 150.183158,393.417285 148.538596,391.488738 C147.075088,392.543412 145.279649,393.146083 143.333333,393.146083 C140.240351,393.146083 137.509474,391.594205 135.88,389.228721 C134.280702,390.735399 132.123158,391.639406 129.754386,391.639406 C126.254035,391.639406 123.221404,389.650591 121.712632,386.75777 C120.06807,388.806852 117.518246,390.132728 114.666667,390.132728 C111.166316,390.132728 108.133684,388.143913 106.624912,385.251092 C104.980351,387.300174 102.430526,388.62605 99.5789474,388.62605 C97.4968421,388.62605 95.5807018,387.932979 94.0568421,386.727636 C92.5480702,389.635524 89.5003509,391.639406 86,391.639406 C84.8382456,391.639406 83.7217544,391.413404 82.6957895,391.006601 C81.0512281,393.221417 78.4108772,394.652761 75.4385965,394.652761 C75.4385965,398.148253 73.4470175,401.176675 70.5501754,402.683353 C70.7915789,403.481892 70.9122807,404.325632 70.9122807,405.199505 C70.9122807,407.896458 69.7203509,410.322209 67.834386,411.979554 C69.7203509,413.6369 70.9122807,416.062651 70.9122807,418.759604 C70.9122807,421.95376 69.2375439,424.771248 66.7329825,426.368326 C67.4722807,427.679136 67.8947368,429.20088 67.8947368,430.813025 C67.8947368,433.555179 66.6575439,436.02613 64.7263158,437.668409 C65.7824561,439.129886 66.3859649,440.922832 66.3859649,442.866447 C66.3859649,446.211271 64.5603509,449.134226 61.8445614,450.70117 C61.7238596,454.513065 59.234386,457.737355 55.794386,458.927631 C55.8245614,459.093365 55.8245614,459.2591 55.8245614,459.439901 C55.8245614,464.427004 51.7659649,468.479967 46.7719298,468.479967 C41.7778947,468.479967 37.7192982,464.427004 37.7192982,459.439901 C37.7192982,459.2591 37.7192982,459.093365 37.7494737,458.927631 C34.2189474,457.707222 31.6842105,454.34733 31.6842105,450.399835 C31.6842105,450.008099 31.714386,449.616363 31.7596491,449.239693 C29.0136842,447.672748 27.1578947,444.734727 27.1578947,441.359769 C27.1578947,439.747624 27.5803509,438.225879 28.3196491,436.91507 C25.8150877,435.317991 24.1403509,432.500504 24.1403509,429.306347 C24.1403509,426.940864 25.045614,424.786314 26.554386,423.189236 C24.185614,421.562024 22.6315789,418.834938 22.6315789,415.746248 C22.6315789,413.139696 23.7329825,410.789279 25.5133333,409.147 C22.0733333,407.881391 19.6140351,404.5667 19.6140351,400.679472 C19.6140351,398.072919 20.7154386,395.722502 22.4957895,394.080224 C19.0557895,392.814614 16.5964912,389.499923 16.5964912,385.612695 C16.5964912,382.765074 17.9242105,380.218789 19.9761404,378.57651 C17.0792982,377.069833 15.0877193,374.04141 15.0877193,370.545918 C15.0877193,367.698297 16.4154386,365.152012 18.4673684,363.509734 C15.5705263,362.003056 13.5789474,358.974634 13.5789474,355.479142 C13.5789474,353.038324 14.5294737,350.838574 16.1136842,349.226429 C12.0701754,348.322423 9.05263158,344.721463 9.05263158,340.412365 C9.05263158,337.564744 10.3803509,335.018459 12.4322807,333.37618 C9.5354386,331.869502 7.54385965,328.84108 7.54385965,325.345588 C7.54385965,323.401974 8.14736842,321.609027 9.20350877,320.14755 C7.2722807,318.505271 6.03508772,316.03432 6.03508772,313.292167 C6.03508772,310.444546 7.36280702,307.898261 9.41473684,306.255982 C6.51789474,304.749304 4.52631579,301.720882 4.52631579,298.22539 C4.52631579,295.859906 5.43157895,293.705357 6.94035088,292.108279 C4.57157895,290.481067 3.01754386,287.75398 3.01754386,284.665291 C3.01754386,281.169799 5.00912281,278.141377 7.90596491,276.634699 C5.85403509,274.99242 4.52631579,272.446135 4.52631579,269.598514 C4.52631579,265.651019 7.06105263,262.291127 10.5915789,261.070719 C9.61087719,259.624308 9.05263158,257.906695 9.05263158,256.038415 C9.05263158,252.331988 11.285614,249.137831 14.4842105,247.751688 C11.285614,246.365544 9.05263158,243.171388 9.05263158,239.464961 C9.05263158,239.284159 9.05263158,239.118425 9.08280702,238.95269 C5.5522807,237.732281 3.01754386,234.37239 3.01754386,230.424895 C3.01754386,228.34568 3.71157895,226.432199 4.91859649,224.910454 C2.00666667,223.403777 0,220.360288 0,216.864796 C0,212.902233 2.54982456,209.542342 6.0954386,208.321933 C6.59333333,203.8019 10.4407018,200.291341 15.0877193,200.291341 C17.4112281,200.291341 19.5235088,201.165214 21.122807,202.611625 C22.7221053,201.165214 24.834386,200.291341 27.1578947,200.291341 C31.5635088,200.291341 35.2449123,203.455364 36.0445614,207.628862 C37.4024561,206.800189 39.0168421,206.318052 40.7368421,206.318052 C44.237193,206.318052 47.2698246,208.306866 48.7785965,211.199688 C50.4231579,209.150606 52.9729825,207.82473 55.8245614,207.82473 C58.1480702,207.82473 60.2603509,208.698603 61.8596491,210.145013 C63.4589474,208.698603 65.5712281,207.82473 67.8947368,207.82473 C69.9768421,207.82473 71.8929825,208.517801 73.4168421,209.723143 C74.925614,206.815256 77.9733333,204.811374 81.4736842,204.811374 C84.174386,204.811374 86.6035088,206.00165 88.2631579,207.884997 C89.922807,206.00165 92.3519298,204.811374 95.0526316,204.811374 C97.7533333,204.811374 100.182456,206.00165 101.842105,207.884997 C103.501754,206.00165 105.930877,204.811374 108.631579,204.811374 C111.332281,204.811374 113.761404,206.00165 115.421053,207.884997 C117.080702,206.00165 119.509825,204.811374 122.210526,204.811374 C124.911228,204.811374 127.340351,206.00165 129,207.884997 C130.659649,206.00165 133.088772,204.811374 135.789474,204.811374 C138.490175,204.811374 140.919298,206.00165 142.578947,207.884997 C144.238596,206.00165 146.667719,204.811374 149.368421,204.811374 C151.737193,204.811374 153.894737,205.715381 155.494035,207.222059 C157.123509,204.856575 159.854386,203.304697 162.947368,203.304697 C165.270877,203.304697 167.383158,204.17857 168.982456,205.62498 C170.581754,204.17857 172.694035,203.304697 175.017544,203.304697 C177.386316,203.304697 179.54386,204.208703 181.143158,205.715381 C182.772632,203.349897 185.503509,201.798019 188.596491,201.798019 C191.206667,201.798019 193.560351,202.897894 195.204912,204.675773 C196.472281,201.240548 199.791579,198.784664 203.684211,198.784664 C205.404211,198.784664 207.018596,199.2668 208.376491,200.095473 C209.17614,195.921976 212.857544,192.757953 217.263158,192.757953 C217.444211,192.757953 217.625263,192.757953 217.791228,192.788086 C217.444211,191.83888 217.263158,190.814339 217.263158,189.744598 C217.263158,185.736835 219.888421,182.331743 223.509474,181.141468 C223.373684,180.52373 223.298246,179.860792 223.298246,179.197854 C223.298246,176.048897 224.912632,173.276611 227.356842,171.664465 C224.912632,170.05232 223.298246,167.280033 223.298246,164.131077 C223.298246,160.982121 224.912632,158.209834 227.356842,156.597689 C224.912632,154.985544 223.298246,152.213257 223.298246,149.0643 C223.298246,145.915344 224.912632,143.143057 227.356842,141.530912 C224.912632,139.918767 223.298246,137.14648 223.298246,133.997524 C223.298246,130.848567 224.912632,128.07628 227.356842,126.464135 C224.912632,124.85199 223.298246,122.079703 223.298246,118.930747 C223.298246,115.781791 224.912632,113.009504 227.356842,111.397359 C224.912632,109.785213 223.298246,107.012927 223.298246,103.86397 C223.298246,100.715014 224.912632,97.9427269 227.356842,96.3305818 C224.912632,94.7184367 223.298246,91.9461498 223.298246,88.7971935 C223.298246,85.6482371 224.912632,82.8759502 227.356842,81.2638051 C224.912632,79.65166 223.298246,76.8793731 223.298246,73.7304167 C223.298246,69.0747827 226.84386,65.2327547 231.385263,64.735551 C231.023158,63.7863441 230.842105,62.7467365 230.842105,61.6769954 C230.842105,58.4828387 232.501754,55.6804182 235.021404,54.0682731 C234.900702,50.9193168 234.97614,47.2731568 235.157193,43.4461955 C235.805965,31.0161047 237.857895,16.5821326 239.894737,10.4499545 C239.909825,10.4047542 239.924912,10.3746206 239.94,10.3294203 C242.097544,3.94110695 245.778947,-0.141989547 251.527368,1.28935424 C256.310175,2.49469638 259.508772,7.0147294 259.508772,11.9415654 L259.508772,35.0841344 C259.614386,35.114268 259.72,35.1444015 259.825614,35.1896019 C260.866667,31.3626406 264.397193,28.5300866 268.561404,28.5300866 C271.820351,28.5300866 274.687018,30.2627659 276.271228,32.8542515 C277.734737,29.8559629 280.827719,27.7767477 284.403509,27.7767477 C287.737895,27.7767477 290.649825,29.5696942 292.20386,32.2515804 C293.290175,31.7995771 294.467018,31.5434419 295.719298,31.5434419 C298.510526,31.5434419 301.015088,32.8090512 302.689825,34.7978657 C303.353684,34.6471979 304.047719,34.5567973 304.77193,34.5567973 C305.284912,34.5567973 305.782807,34.6019976 306.280702,34.6923982 L306.280702,12.0922332 C306.280702,8.55154062 307.623509,5.0711152 310.294035,2.76589836 C314.186667,-0.593992849 319.25614,-0.699460286 321.368421,1.40988846 C323.661754,4.27257603 325.306316,8.22007154 326.452982,13.9454467 C327.871228,20.9062975 328.535088,30.458634 328.791579,43.8379317 C328.821754,45.8568798 328.85193,47.9511618 328.867018,50.1358444 C331.477193,51.0247842 333.529123,53.0889326 334.434386,55.6804182 C334.600351,55.6502847 334.766316,55.6502847 334.947368,55.6502847 C339.941404,55.6502847 344,59.7032476 344,64.6903507 C344,67.839307 342.385614,70.611594 339.941404,72.2237391 C342.385614,73.8358842 344,76.6081711 344,79.7571274 C344,82.9060838 342.385614,85.6783707 339.941404,87.2905158 C342.385614,88.9026609 344,91.6749478 344,94.8239042 Z" id="body" fill="#E8CFB0"></path>
                <path d="M56,460 C56,464.965 51.965,469 47,469 C42.035,469 38,464.965 38,460 L56,460 Z" id="left-foot-1" fill="#6B3329"></path>
                <path d="M226,465 C224.883171,465.465455 223.628651,465.727273 222.328234,465.727273 L222.190542,465.727273 C221.471488,469.858182 217.692629,473 213.148818,473 C208.344924,473 204.397775,469.48 204,465 L226,465 Z" id="right-foot-1" fill="#6B3329"></path>
                <path d="M249,29.6378526 C249,35.6433121 245.936543,40.1474067 242.873085,41.6487716 C241.218818,42.4595086 237.803063,42.8348499 235,43 C235.658643,30.6137398 237.741794,16.2306642 239.809628,10.1201092 C239.824945,10.0750682 239.840263,10.0450409 239.85558,10 C241.295405,10.2702457 243.010941,11.0809827 244.404814,13.1228389 C247.468271,17.6269336 249,23.6323931 249,29.6378526" id="ear-left" fill="#FCF3E4"></path>
                <path d="M329,44 C324.318182,41.0514113 317,39.2217742 317,39.2217742 C317,39.2217742 317,33.1733871 320.030303,22.5887097 C321.333333,18.0675403 324,15.4667339 326.651515,14 C328.075758,20.9858871 328.742424,30.5725806 329,44" id="ear-right" fill="#FCF3E4"></path>
                <path d="M302,107 C302,120.254 292.598,131 281,131 C269.402,131 260,120.254 260,107 C260,93.746 269.402,83 281,83 C292.598,83 302,93.746 302,107" id="nose-shape" fill="#FCF3E4"></path>
                <path d="M243,95 C243,90.035 245.685,86 249,86 C252.315,86 255,90.035 255,95" id="eye-left" stroke="#67503E" stroke-width="3" stroke-linecap="round" stroke-linejoin="round"></path>
                <path d="M308,95 C308,90.035 310.685,86 314,86 C317.315,86 320,90.035 320,95" id="eye-right" stroke="#67503E" stroke-width="3" stroke-linecap="round" stroke-linejoin="round"></path>
                <path d="M288,98 C288,101.3135 284.6415,104 280.5,104 C276.3585,104 273,101.3135 273,98 C273,94.6865 276.3585,92 280.5,92 C284.6415,92 288,94.6865 288,98" id="nose" fill="#67503E"></path>
                <path d="M281,104 L281,113.428571 C281,113.428571 281,115 276.5,115 C272,115 272,113.428571 272,113.428571" id="mouth-left" stroke="#67503E" stroke-width="3" stroke-linecap="round" stroke-linejoin="round"></path>
                <path d="M281,113 C281,113 282.5,115 285.5,115 C288.5,115 290,113 290,113" id="mouth-right" stroke="#67503E" stroke-width="3" stroke-linecap="round" stroke-linejoin="round"></path>
                <path d="M334,107.5 C334,109.9855 330.865556,112 327,112 C323.134444,112 320,109.9855 320,107.5 C320,105.0145 323.134444,103 327,103 C330.865556,103 334,105.0145 334,107.5" id="blush-right" fill="#FCDBDB"></path>
                <path d="M245,107.5 C245,109.9855 241.865556,112 238,112 C234.134444,112 231,109.9855 231,107.5 C231,105.0145 234.134444,103 238,103 C241.865556,103 245,105.0145 245,107.5" id="blush-left" fill="#FCDBDB"></path>
            </g>
        </g>
    </g>
</svg>