<?xml version="1.0" encoding="UTF-8"?>
<svg width="152px" height="140px" viewBox="0 0 152 140" version="1.1" xmlns="http://www.w3.org/2000/svg" xmlns:xlink="http://www.w3.org/1999/xlink">
    <title>fratboi-llama</title>
    <g id="home" stroke="none" stroke-width="1" fill="none" fill-rule="evenodd">
        <g id="Desktop-revision-1" transform="translate(-831.000000, -1434.000000)">
            <g id="section-1" transform="translate(36.000000, 1145.000000)">
                <g id="pt-2" transform="translate(374.000000, 290.000000)">
                    <g id="fratboi-llama" transform="translate(422.000000, 0.000000)">
                        <path d="M126.25062,29 C121.77088,26.5657082 117.833609,26.2480312 113.874949,27.4965754 C113.874949,27.4965754 116.103153,21.8356464 113,15.1644308 C113,15.1644308 125.332896,10.6726267 127.419164,14.6306597 C128.834637,17.3216788 127.355001,24.6448709 126.25062,29" id="Fill-1" fill="#FCF3E4"></path>
                        <path d="M126.25062,29 C121.77088,26.5657082 117.833609,26.2480312 113.874949,27.4965754 C113.874949,27.4965754 116.103153,21.8356464 113,15.1644308 C113,15.1644308 125.332896,10.6726267 127.419164,14.6306597 C128.834637,17.3216788 127.355001,24.6448709 126.25062,29 Z" id="Stroke-3" stroke="#67503E" stroke-width="1.072" stroke-linecap="round" stroke-linejoin="round"></path>
                        <path d="M135.828024,95.8216537 C135.828024,95.8216537 141.902268,105.863939 135.828024,113.898891 C127.728402,125.948508 115.579914,119.922763 115.579914,119.922763 C115.579914,119.922763 113.556426,131.974254 105.458694,133.983461 C97.3590719,135.992668 89.2613396,129.966922 89.2613396,129.966922 C89.2613396,129.966922 83.1870957,138 77.1128518,138 C71.0386079,138 66.9878524,129.966922 66.9878524,129.966922 C66.9878524,129.966922 60.9154978,138 48.76701,133.983461 C36.6185222,129.966922 36.6185222,119.922763 36.6185222,119.922763 C36.6185222,119.922763 28.5207899,123.941176 20.4230576,117.91543 C8.27456974,107.873145 16.3723021,93.8143213 16.3723021,93.8143213 C16.3723021,93.8143213 2.20032583,93.8143213 0.174948083,77.7444163 C-1.84854032,61.6782598 14.3488137,55.652514 14.3488137,55.652514 C14.3488137,55.652514 8.27456974,47.6175616 12.3234359,35.5679442 C13.9841701,30.6273949 18.1766265,27.8947239 22.5693534,26.3690763 C28.9043269,24.1799407 35.6077227,24.521056 35.6077227,24.521056 C35.6077227,22.0901408 35.6077227,18.1748117 38.320822,14.1357815 C40.0609086,11.5061948 42.9761678,8.81475744 47.7562105,6.44381858 C59.9028089,0.419947039 70.025919,10.4622319 70.025919,10.4622319 C70.025919,10.4622319 83.1870957,-4.60306968 97.3590719,1.42267612 C106.307009,5.45983209 110.680843,10.4809745 112.706221,15.0204322 C115.721615,21.7883849 113.556426,27.5329917 113.556426,27.5329917 C117.403132,26.2678663 121.229056,26.590239 125.582106,29.0605136 C128.113828,30.4662086 130.826928,32.6141105 133.802646,35.5679442 C141.902268,43.6010224 135.828024,57.6617207 135.828024,57.6617207 C135.828024,57.6617207 150,63.6855923 150,77.7444163 C150,91.8051146 135.828024,95.8216537 135.828024,95.8216537" id="Fill-5" fill="#FCF3E4"></path>
                        <path d="M135.828024,95.8216537 C135.828024,95.8216537 141.902268,105.863939 135.828024,113.898891 C127.728402,125.948508 115.579914,119.922763 115.579914,119.922763 C115.579914,119.922763 113.556426,131.974254 105.458694,133.983461 C97.3590719,135.992668 89.2613396,129.966922 89.2613396,129.966922 C89.2613396,129.966922 83.1870957,138 77.1128518,138 C71.0386079,138 66.9878524,129.966922 66.9878524,129.966922 C66.9878524,129.966922 60.9154978,138 48.76701,133.983461 C36.6185222,129.966922 36.6185222,119.922763 36.6185222,119.922763 C36.6185222,119.922763 28.5207899,123.941176 20.4230576,117.91543 C8.27456974,107.873145 16.3723021,93.8143213 16.3723021,93.8143213 C16.3723021,93.8143213 2.20032583,93.8143213 0.174948083,77.7444163 C-1.84854032,61.6782598 14.3488137,55.652514 14.3488137,55.652514 C14.3488137,55.652514 8.27456974,47.6175616 12.3234359,35.5679442 C13.9841701,30.6273949 18.1766265,27.8947239 22.5693534,26.3690763 C28.9043269,24.1799407 35.6077227,24.521056 35.6077227,24.521056 C35.6077227,22.0901408 35.6077227,18.1748117 38.320822,14.1357815 C40.0609086,11.5061948 42.9761678,8.81475744 47.7562105,6.44381858 C59.9028089,0.419947039 70.025919,10.4622319 70.025919,10.4622319 C70.025919,10.4622319 83.1870957,-4.60306968 97.3590719,1.42267612 C106.307009,5.45983209 110.680843,10.4809745 112.706221,15.0204322 C115.721615,21.7883849 113.556426,27.5329917 113.556426,27.5329917 C117.403132,26.2678663 121.229056,26.590239 125.582106,29.0605136 C128.113828,30.4662086 130.826928,32.6141105 133.802646,35.5679442 C141.902268,43.6010224 135.828024,57.6617207 135.828024,57.6617207 C135.828024,57.6617207 150,63.6855923 150,77.7444163 C150,91.8051146 135.828024,95.8216537 135.828024,95.8216537 Z" id="Stroke-7" stroke="#67503E" stroke-width="1.072" stroke-linecap="round" stroke-linejoin="round"></path>
                        <path d="M38,14.0029688 C35.1742495,17.9627612 35.1742495,21.8048996 35.1742495,24.1892314 C35.1742495,24.1892314 28.1944884,23.8528145 21.5945112,26 C18.1567772,21.2533965 15.6675192,15.5196023 21.4685725,13.3521951 C28.5959181,10.69395 34.7531418,12.5249404 38,14.0029688" id="Fill-9" fill="#FCF3E4"></path>
                        <path d="M38,14.0029688 C35.1742495,17.9627612 35.1742495,21.8048996 35.1742495,24.1892314 C35.1742495,24.1892314 28.1944884,23.8528145 21.5945112,26 C18.1567772,21.2533965 15.6675192,15.5196023 21.4685725,13.3521951 C28.5959181,10.69395 34.7531418,12.5249404 38,14.0029688 Z" id="Stroke-11" stroke="#67503E" stroke-width="1.072" stroke-linecap="round" stroke-linejoin="round"></path>
                        <path d="M92,77.990653 C92.0076839,86.2757957 85.9681622,92.9943883 78.5115352,93 C71.0549083,93.0056047 65.0057725,86.2944896 65,78.009347 C64.9942357,69.7260737 71.0337574,63.0056117 78.4884616,63 C85.9450885,62.9943953 91.9942243,69.7055104 92,77.990653" id="Fill-13" fill="#F4E3CA"></path>
                        <path d="M84,71.4965105 C84.0017934,73.4297101 81.9882346,74.9982538 79.5026919,75 C77.0171492,75.0017433 75,73.4366891 75,71.5034895 C74.9982066,69.5702899 77.0117654,68.0017462 79.4973081,68 C81.9828508,67.9982567 83.9982042,69.5633109 84,71.4965105" id="Fill-15" fill="#67503E"></path>
                        <path d="M78.996012,75 L79,80.9974348 C79,80.9974348 79.001994,81.9980039 76.000997,82 C73,82.0019902 73,81.0034143 73,81.0034143" id="Stroke-17" stroke="#67503E" stroke-width="1.072" stroke-linecap="round" stroke-linejoin="round"></path>
                        <path d="M79,80.5019985 C79,80.5019985 80.000997,81.5039985 82.000997,81.5019985 C84.000997,81.5019985 85,80.4979985 85,80.4979985" id="Stroke-19" stroke="#67503E" stroke-width="1.072" stroke-linecap="round" stroke-linejoin="round"></path>
                        <path d="M112,77.997009 C112,79.6540367 110.210014,80.9980038 108.001773,81 C105.793532,81.0019918 104,79.6600187 104,78.002991 C103.998229,76.3459633 105.788215,75.0019962 107.998228,75 C110.206469,74.9980082 111.998228,76.3399813 112,77.997009" id="Fill-21" fill="#FCDBDB"></path>
                        <path d="M56,77.997009 C56.0017709,79.6540367 54.2117845,80.9980038 52.0035439,81 C49.7935309,81.0019918 48.0017723,79.6600187 48,78.002991 C48,76.3459633 49.7899864,75.0019962 51.9982271,75 C54.20824,74.9980082 56,76.3399813 56,77.997009" id="Fill-23" fill="#FCDBDB"></path>
                        <path d="M61,57.5 C61,61.0898571 58.7619048,64 56,64 C53.2380952,64 51,61.0898571 51,57.5 C51,53.9101429 53.2380952,51 56,51 C58.7619048,51 61,53.9101429 61,57.5" id="Fill-25" fill="#67503E"></path>
                        <path d="M108,57.5 C108,61.0898571 105.761905,64 103,64 C100.238095,64 98,61.0898571 98,57.5 C98,53.9101429 100.238095,51 103,51 C105.761905,51 108,53.9101429 108,57.5" id="Fill-27" fill="#67503E"></path>
                        <path d="M52,46.5 C52,46.5 54,45 56,45 C58,45 62,46.5 64,48" id="Stroke-29" stroke="#67503E" stroke-width="1.072" stroke-linecap="round" stroke-linejoin="round"></path>
                        <path d="M109,46.5 C109,46.5 107,45 105,45 C103,45 99,46.5 97,48" id="Stroke-31" stroke="#67503E" stroke-width="1.072" stroke-linecap="round" stroke-linejoin="round"></path>
                    </g>
                </g>
            </g>
        </g>
    </g>
</svg>