<?xml version="1.0" encoding="UTF-8"?>
<svg width="141px" height="131px" viewBox="0 0 141 131" version="1.1" xmlns="http://www.w3.org/2000/svg" xmlns:xlink="http://www.w3.org/1999/xlink">
    <title>friendly-llama</title>
    <g id="home" stroke="none" stroke-width="1" fill="none" fill-rule="evenodd">
        <g id="Desktop-revision-1" transform="translate(-42.000000, -1144.000000)">
            <g id="section-1" transform="translate(36.000000, 1145.000000)">
                <g id="pt-1" transform="translate(7.000000, 0.000000)">
                    <g id="friendly-llama">
                        <path d="M116.367246,27 C112.186155,24.7178514 108.511368,24.4200293 104.816619,25.5905395 C104.816619,25.5905395 106.896276,20.2834185 104,14.0291539 C104,14.0291539 115.510703,9.81808754 117.457886,13.5287434 C118.778995,16.0515739 117.398001,22.9170665 116.367246,27" id="Fill-1" fill="#FCF3E4"></path>
                        <path d="M116.367246,27 C112.186155,24.7178514 108.511368,24.4200293 104.816619,25.5905395 C104.816619,25.5905395 106.896276,20.2834185 104,14.0291539 C104,14.0291539 115.510703,9.81808754 117.457886,13.5287434 C118.778995,16.0515739 117.398001,22.9170665 116.367246,27 Z" id="Stroke-3" stroke="#67503E" stroke-width="1.072" stroke-linecap="round" stroke-linejoin="round"></path>
                        <path d="M125.867302,89.5724154 C125.867302,89.5724154 131.496101,98.9597687 125.867302,106.470703 C118.361653,117.734475 107.104054,112.101713 107.104054,112.101713 C107.104054,112.101713 105.228955,123.367238 97.7250561,125.245409 C90.2194066,127.123581 82.715508,121.490818 82.715508,121.490818 C82.715508,121.490818 77.0867087,129 71.4579093,129 C65.82911,129 62.0754099,121.490818 62.0754099,121.490818 C62.0754099,121.490818 56.4483613,129 45.1907626,125.245409 C33.9331639,121.490818 33.9331639,112.101713 33.9331639,112.101713 C33.9331639,112.101713 26.4292653,115.858056 18.9253667,110.225293 C7.66776796,100.83794 15.1716666,87.695996 15.1716666,87.695996 C15.1716666,87.695996 2.03896861,87.695996 0.162118557,72.6741283 C-1.7129807,57.6557646 13.2965673,52.0230023 13.2965673,52.0230023 C13.2965673,52.0230023 7.66776796,44.5120684 11.4197173,33.2482957 C12.9586643,28.6299561 16.8436738,26.0755028 20.9142675,24.6493539 C26.7846763,22.602988 32.9964897,22.9218567 32.9964897,22.9218567 C32.9964897,20.6494794 32.9964897,16.9894979 35.5106283,13.2138827 C37.1231087,10.7557907 39.8245822,8.23988195 44.2540884,6.02356954 C55.5099363,0.392559189 64.8906849,9.77991247 64.8906849,9.77991247 C64.8906849,9.77991247 77.0867087,-4.30286948 90.2194066,1.3298929 C98.5111621,5.10375609 102.564248,9.79743273 104.441098,14.0408388 C107.235363,20.3674033 105.228955,25.7373618 105.228955,25.7373618 C108.793569,24.5547445 112.338925,24.856093 116.372752,27.1652627 C118.718814,28.4792819 121.232953,30.4871033 123.990452,33.2482957 C131.496101,40.7574775 125.867302,53.9011737 125.867302,53.9011737 C125.867302,53.9011737 139,59.5321841 139,72.6741283 C139,85.8178245 125.867302,89.5724154 125.867302,89.5724154" id="Fill-5" fill="#FCF3E4"></path>
                        <path d="M125.867302,89.5724154 C125.867302,89.5724154 131.496101,98.9597687 125.867302,106.470703 C118.361653,117.734475 107.104054,112.101713 107.104054,112.101713 C107.104054,112.101713 105.228955,123.367238 97.7250561,125.245409 C90.2194066,127.123581 82.715508,121.490818 82.715508,121.490818 C82.715508,121.490818 77.0867087,129 71.4579093,129 C65.82911,129 62.0754099,121.490818 62.0754099,121.490818 C62.0754099,121.490818 56.4483613,129 45.1907626,125.245409 C33.9331639,121.490818 33.9331639,112.101713 33.9331639,112.101713 C33.9331639,112.101713 26.4292653,115.858056 18.9253667,110.225293 C7.66776796,100.83794 15.1716666,87.695996 15.1716666,87.695996 C15.1716666,87.695996 2.03896861,87.695996 0.162118557,72.6741283 C-1.7129807,57.6557646 13.2965673,52.0230023 13.2965673,52.0230023 C13.2965673,52.0230023 7.66776796,44.5120684 11.4197173,33.2482957 C12.9586643,28.6299561 16.8436738,26.0755028 20.9142675,24.6493539 C26.7846763,22.602988 32.9964897,22.9218567 32.9964897,22.9218567 C32.9964897,20.6494794 32.9964897,16.9894979 35.5106283,13.2138827 C37.1231087,10.7557907 39.8245822,8.23988195 44.2540884,6.02356954 C55.5099363,0.392559189 64.8906849,9.77991247 64.8906849,9.77991247 C64.8906849,9.77991247 77.0867087,-4.30286948 90.2194066,1.3298929 C98.5111621,5.10375609 102.564248,9.79743273 104.441098,14.0408388 C107.235363,20.3674033 105.228955,25.7373618 105.228955,25.7373618 C108.793569,24.5547445 112.338925,24.856093 116.372752,27.1652627 C118.718814,28.4792819 121.232953,30.4871033 123.990452,33.2482957 C131.496101,40.7574775 125.867302,53.9011737 125.867302,53.9011737 C125.867302,53.9011737 139,59.5321841 139,72.6741283 C139,85.8178245 125.867302,89.5724154 125.867302,89.5724154 Z" id="Stroke-7" stroke="#67503E" stroke-width="1.072" stroke-linecap="round" stroke-linejoin="round"></path>
                        <path d="M36,12.8598996 C33.4568246,16.5368497 33.4568246,20.1045496 33.4568246,22.318572 C33.4568246,22.318572 27.1750395,22.0061849 21.2350601,24 C18.1410994,19.5924396 15.9007673,14.2682022 21.1217152,12.2556097 C27.5363263,9.7872393 33.0778277,11.4874446 36,12.8598996" id="Fill-9" fill="#FCF3E4"></path>
                        <path d="M36,12.8598996 C33.4568246,16.5368497 33.4568246,20.1045496 33.4568246,22.318572 C33.4568246,22.318572 27.1750395,22.0061849 21.2350601,24 C18.1410994,19.5924396 15.9007673,14.2682022 21.1217152,12.2556097 C27.5363263,9.7872393 33.0778277,11.4874446 36,12.8598996 Z" id="Stroke-11" stroke="#67503E" stroke-width="1.072" stroke-linecap="round" stroke-linejoin="round"></path>
                        <path d="M85,71.9912762 C85.0071147,79.724076 79.414965,85.9947624 72.5106807,86 C65.6063965,86.005231 60.0053449,79.7415236 60,72.0087238 C59.9946627,64.2776688 65.5868124,58.0052376 72.4893163,58 C79.3936005,57.994769 84.9946521,64.2584764 85,71.9912762" id="Fill-13" fill="#F4E3CA"></path>
                        <path d="M51,65 C50.9982567,62.2434407 52.5633112,60.0016606 54.4965112,60 C56.4297112,60 57.9982552,62.238459 58,64.9950183" id="Stroke-15" stroke="#67503E" stroke-width="1.072" stroke-linecap="round" stroke-linejoin="round"></path>
                        <path d="M89,65 C88.9982571,62.2434412 90.5629216,60.0016615 92.4956399,60 C94.4283582,59.9983403 95.9965113,62.2384595 96,64.9950183" id="Stroke-17" stroke="#67503E" stroke-width="1.072" stroke-linecap="round" stroke-linejoin="round"></path>
                        <path d="M77,67.4965105 C77.0017934,69.4297101 74.9882346,70.9982538 72.5026919,71 C70.0171492,71.0017433 68,69.4366891 68,67.5034895 C67.9982066,65.5702899 70.0117654,64.0017462 72.4973081,64 C74.9828508,63.9982567 76.9982042,65.5633109 77,67.4965105" id="Fill-19" fill="#67503E"></path>
                        <path d="M72.9966766,71 L73,76.1406584 C73,76.1406584 73.0016617,76.998289 70.5008308,77 C68,77.0017059 68,76.1457837 68,76.1457837" id="Stroke-21" stroke="#67503E" stroke-width="1.072" stroke-linecap="round" stroke-linejoin="round"></path>
                        <path d="M73,75.5019985 C73,75.5019985 73.8341642,76.5039985 75.5008308,76.5019985 C77.1674975,76.5019985 78,75.4979985 78,75.4979985" id="Stroke-23" stroke="#67503E" stroke-width="1.072" stroke-linecap="round" stroke-linejoin="round"></path>
                        <path d="M104,72.4975075 C104,73.8783639 102.210014,74.9983365 100.001773,75 C97.7935323,75.0016598 96,73.8833489 96,72.5024925 C95.9982291,71.1216361 97.7882155,70.0016635 99.9982284,70 C102.206469,69.9983402 103.998228,71.1166511 104,72.4975075" id="Fill-25" fill="#FCDBDB"></path>
                        <path d="M52,72.4975075 C52.0017709,73.8783639 50.2117845,74.9983365 48.0035439,75 C45.7935309,75.0016598 44.0017723,73.8833489 44,72.5024925 C44,71.1216361 45.7899864,70.0016635 47.9982271,70 C50.20824,69.9983402 52,71.1166511 52,72.4975075" id="Fill-27" fill="#FCDBDB"></path>
                    </g>
                </g>
            </g>
        </g>
    </g>
</svg>