<?xml version="1.0" encoding="UTF-8"?>
<svg width="149px" height="138px" viewBox="0 0 149 138" version="1.1" xmlns="http://www.w3.org/2000/svg" xmlns:xlink="http://www.w3.org/1999/xlink">
    <title>shocked-llama</title>
    <g id="home" stroke="none" stroke-width="1" fill="none" fill-rule="evenodd">
        <g id="Desktop-revision-1" transform="translate(-838.000000, -1993.000000)">
            <g id="section-1" transform="translate(36.000000, 1145.000000)">
                <g id="pt-4" transform="translate(374.000000, 849.000000)">
                    <g id="shocked-llama" transform="translate(429.000000, 0.000000)">
                        <path d="M122.367246,29 C118.186155,26.5657082 114.511368,26.2480312 110.816619,27.4965754 C110.816619,27.4965754 112.896276,21.8356464 110,15.1644308 C110,15.1644308 121.510703,10.6726267 123.457886,14.6306597 C124.778995,17.3216788 123.398001,24.6448709 122.367246,29" id="Fill-1" fill="#FCF3E4"></path>
                        <path d="M122.367246,29 C118.186155,26.5657082 114.511368,26.2480312 110.816619,27.4965754 C110.816619,27.4965754 112.896276,21.8356464 110,15.1644308 C110,15.1644308 121.510703,10.6726267 123.457886,14.6306597 C124.778995,17.3216788 123.398001,24.6448709 122.367246,29 Z" id="Stroke-3" stroke="#67503E" stroke-width="1.072" stroke-linecap="round" stroke-linejoin="round"></path>
                        <path d="M133.111463,94.4329759 C133.111463,94.4329759 139.064222,104.327863 133.111463,112.248206 C125.173834,124.12318 113.268316,118.184769 113.268316,118.184769 C113.268316,118.184769 111.285297,130.06159 103.34952,132.039828 C95.4118905,134.019914 87.4761128,128.081504 87.4761128,128.081504 C87.4761128,128.081504 81.5233538,136 75.5705948,136 C69.6178357,136 65.6480953,128.081504 65.6480953,128.081504 C65.6480953,128.081504 59.6971879,136 47.7916698,132.039828 C35.8861517,128.081504 35.8861517,118.184769 35.8861517,118.184769 C35.8861517,118.184769 27.9503741,122.143094 20.0145964,116.204684 C8.10907835,106.309796 16.044856,92.4528901 16.044856,92.4528901 C16.044856,92.4528901 2.15631932,92.4528901 0.171449121,76.6177454 C-1.81156952,60.7826006 14.0618374,54.8441904 14.0618374,54.8441904 C14.0618374,54.8441904 8.10907835,46.9275416 12.0769672,35.0507212 C13.7044867,30.181779 17.8130939,27.4905617 22.1179663,25.9851794 C28.3262404,23.8277725 34.8955682,24.1657909 34.8955682,24.1657909 C34.8955682,21.7701087 34.8955682,17.9096804 37.5544055,13.9310379 C39.2596905,11.3377166 42.1166445,8.68713541 46.8010863,6.35056033 C58.7047528,0.412150161 68.6254006,10.3088848 68.6254006,10.3088848 C68.6254006,10.3088848 81.5233538,-4.53621714 95.4118905,1.40219304 C104.180869,5.3808355 108.467226,10.3292028 110.452096,14.8028667 C113.407183,21.4727265 111.285297,27.1340724 111.285297,27.1340724 C115.05507,25.8872833 118.804474,26.2031366 123.070464,28.6376077 C125.551552,30.0229289 128.210389,32.1415467 131.126593,35.0507212 C139.064222,42.9692172 133.111463,56.8242762 133.111463,56.8242762 C133.111463,56.8242762 147,62.7626863 147,76.6177454 C147,90.4728044 133.111463,94.4329759 133.111463,94.4329759" id="Fill-5" fill="#FCF3E4"></path>
                        <path d="M133.111463,94.4329759 C133.111463,94.4329759 139.064222,104.327863 133.111463,112.248206 C125.173834,124.12318 113.268316,118.184769 113.268316,118.184769 C113.268316,118.184769 111.285297,130.06159 103.34952,132.039828 C95.4118905,134.019914 87.4761128,128.081504 87.4761128,128.081504 C87.4761128,128.081504 81.5233538,136 75.5705948,136 C69.6178357,136 65.6480953,128.081504 65.6480953,128.081504 C65.6480953,128.081504 59.6971879,136 47.7916698,132.039828 C35.8861517,128.081504 35.8861517,118.184769 35.8861517,118.184769 C35.8861517,118.184769 27.9503741,122.143094 20.0145964,116.204684 C8.10907835,106.309796 16.044856,92.4528901 16.044856,92.4528901 C16.044856,92.4528901 2.15631932,92.4528901 0.171449121,76.6177454 C-1.81156952,60.7826006 14.0618374,54.8441904 14.0618374,54.8441904 C14.0618374,54.8441904 8.10907835,46.9275416 12.0769672,35.0507212 C13.7044867,30.181779 17.8130939,27.4905617 22.1179663,25.9851794 C28.3262404,23.8277725 34.8955682,24.1657909 34.8955682,24.1657909 C34.8955682,21.7701087 34.8955682,17.9096804 37.5544055,13.9310379 C39.2596905,11.3377166 42.1166445,8.68713541 46.8010863,6.35056033 C58.7047528,0.412150161 68.6254006,10.3088848 68.6254006,10.3088848 C68.6254006,10.3088848 81.5233538,-4.53621714 95.4118905,1.40219304 C104.180869,5.3808355 108.467226,10.3292028 110.452096,14.8028667 C113.407183,21.4727265 111.285297,27.1340724 111.285297,27.1340724 C115.05507,25.8872833 118.804474,26.2031366 123.070464,28.6376077 C125.551552,30.0229289 128.210389,32.1415467 131.126593,35.0507212 C139.064222,42.9692172 133.111463,56.8242762 133.111463,56.8242762 C133.111463,56.8242762 147,62.7626863 147,76.6177454 C147,90.4728044 133.111463,94.4329759 133.111463,94.4329759 Z" id="Stroke-7" stroke="#67503E" stroke-width="1.072" stroke-linecap="round" stroke-linejoin="round"></path>
                        <path d="M38,14.0029688 C35.315537,17.9627612 35.315537,21.8048996 35.315537,24.1892314 C35.315537,24.1892314 28.6847639,23.8528145 22.4147857,26 C19.1489383,21.2533965 16.7841433,15.5196023 22.2951439,13.3521951 C29.0661222,10.69395 34.9154847,12.5249404 38,14.0029688" id="Fill-9" fill="#FCF3E4"></path>
                        <path d="M38,14.0029688 C35.315537,17.9627612 35.315537,21.8048996 35.315537,24.1892314 C35.315537,24.1892314 28.6847639,23.8528145 22.4147857,26 C19.1489383,21.2533965 16.7841433,15.5196023 22.2951439,13.3521951 C29.0661222,10.69395 34.9154847,12.5249404 38,14.0029688 Z" id="Stroke-11" stroke="#67503E" stroke-width="1.072" stroke-linecap="round" stroke-linejoin="round"></path>
                        <path d="M93,76.4889404 C93.0074567,86.1540251 86.0746235,93.9944656 77.5130597,94 C68.9514959,94.0073671 62.0074687,86.177985 62,76.5129004 C61.9925433,66.8478157 68.9272421,59.0073752 77.4869403,59 C86.0466385,58.9944737 92.9925313,66.8238558 93,76.4889404" id="Fill-13" fill="#F4E3CA"></path>
                        <path d="M82,71.4965105 C82.0017934,73.4297101 79.9882346,74.9982538 77.5026919,75 C75.0171492,75.0017433 73,73.4349444 73,71.5034895 C72.9982066,69.5702899 75.0117654,68.0017462 77.4973081,68 C79.9828508,67.9982567 81.9982042,69.5650556 82,71.4965105" id="Fill-15" fill="#67503E"></path>
                        <path d="M110,76.9960133 C110,78.6524905 108.210014,79.9980044 106.001773,80 C103.793532,80.0019911 102,78.6604639 102,77.0039867 C101.998229,75.3475095 103.788215,74.0019956 105.998228,74 C108.206469,73.9980089 109.998228,75.3395361 110,76.9960133" id="Fill-17" fill="#FCDBDB"></path>
                        <path d="M55,76.997009 C55.0017709,78.6540367 53.2117845,80 51.0035439,80 C48.7935309,80.0019918 47.0017723,78.6600187 47,77.004985 C47,75.3479574 48.7899864,74.0019962 50.9982271,74 C53.20824,73.9980082 55,75.3399813 55,76.997009" id="Fill-19" fill="#FCDBDB"></path>
                        <path d="M76.5,75 L76.5,80.5714286 C76.5,80.5714286 71,84.2857143 71,86.1428571 C71,88 76.5,88 76.5,88 C76.5,88 82,88 82,86.1428571 C82,84.2857143 76.5,80.5714286 76.5,80.5714286" id="Stroke-21" stroke="#67503E" stroke-width="1.072" stroke-linecap="round" stroke-linejoin="round"></path>
                        <path d="M60,57.5 C60,61.0898571 57.7619048,64 55,64 C52.2380952,64 50,61.0898571 50,57.5 C50,53.9101429 52.2380952,51 55,51 C57.7619048,51 60,53.9101429 60,57.5 Z" id="Stroke-23" stroke="#67503E" stroke-width="1.072" stroke-linecap="round" stroke-linejoin="round"></path>
                        <path d="M103,57.5 C103,61.0898571 100.761905,64 98,64 C95.2380952,64 93,61.0898571 93,57.5 C93,53.9101429 95.2380952,51 98,51 C100.761905,51 103,53.9101429 103,57.5 Z" id="Stroke-25" stroke="#67503E" stroke-width="1.072" stroke-linecap="round" stroke-linejoin="round"></path>
                        <path d="M113.603549,32 C113.603549,32 124.189432,38.0208046 125.815375,47.3526805 C127.445153,56.6845564 117.80454,58.2602848 115.752937,53.0598241 C113.701335,47.8575075 112.071558,38.5256316 113.603549,32" id="Fill-27" fill="#BBE8F2"></path>
                    </g>
                </g>
            </g>
        </g>
    </g>
</svg>