<?xml version="1.0" encoding="UTF-8"?>
<svg width="142px" height="133px" viewBox="0 0 142 133" version="1.1" xmlns="http://www.w3.org/2000/svg" xmlns:xlink="http://www.w3.org/1999/xlink">
    <title>wink-llama</title>
    <g id="ui-kit" stroke="none" stroke-width="1" fill="none" fill-rule="evenodd">
        <g id="llama-illustrations" transform="translate(-817.000000, -894.000000)">
            <g id="wink-llama" transform="translate(818.000000, 896.000000)">
                <path d="M117.367246,28 C113.186155,25.5657082 109.511368,25.2480312 105.816619,26.4965754 C105.816619,26.4965754 107.896276,20.8356464 105,14.1644308 C105,14.1644308 116.510703,9.67262671 118.457886,13.6306597 C119.778995,16.3216788 118.398001,23.6448709 117.367246,28" id="Fill-1" fill="#FCF3E4"></path>
                <path d="M117.367246,28 C113.186155,25.5657082 109.511368,25.2480312 105.816619,26.4965754 C105.816619,26.4965754 107.896276,20.8356464 105,14.1644308 C105,14.1644308 116.510703,9.67262671 118.457886,13.6306597 C119.778995,16.3216788 118.398001,23.6448709 117.367246,28 Z" id="Stroke-3" stroke="#67503E" stroke-width="2" stroke-linecap="round" stroke-linejoin="round"></path>
                <path d="M126.772822,90.2667752 C126.772822,90.2667752 132.442117,99.7268987 126.772822,107.296057 C119.213175,118.647146 107.874587,112.970718 107.874587,112.970718 C107.874587,112.970718 105.985998,124.323573 98.428114,126.216304 C90.8684671,128.109035 83.3105836,122.432607 83.3105836,122.432607 C83.3105836,122.432607 77.6412893,130 71.971995,130 C66.3027007,130 62.5219956,122.432607 62.5219956,122.432607 C62.5219956,122.432607 56.8544646,130 45.515876,126.216304 C34.1772874,122.432607 34.1772874,112.970718 34.1772874,112.970718 C34.1772874,112.970718 26.6194039,116.75618 19.0615204,111.079753 C7.72293176,101.61963 15.2808153,88.3758099 15.2808153,88.3758099 C15.2808153,88.3758099 2.05363745,88.3758099 0.163284878,73.2374936 C-1.7253043,58.1027085 13.3922261,52.4262813 13.3922261,52.4262813 C13.3922261,52.4262813 7.72293176,44.8571232 11.5018735,33.5060344 C13.0518921,28.8518938 16.9648514,26.2776385 21.0647298,24.8404342 C26.9773718,22.778205 33.2338745,23.0995455 33.2338745,23.0995455 C33.2338745,20.8095529 33.2338745,17.1211994 35.7661005,13.3163159 C37.3901814,10.839169 40.11109,8.30375701 44.5724631,6.07026388 C55.9092883,0.395602283 65.3575244,9.85572575 65.3575244,9.85572575 C65.3575244,9.85572575 77.6412893,-4.33622506 90.8684671,1.34020214 C99.2198755,5.14332009 103.30212,9.87338182 105.192473,14.1496825 C108.006841,20.5252902 105.985998,25.9368763 105.985998,25.9368763 C109.576257,24.7450914 113.147119,25.0487758 117.209966,27.3758462 C119.572907,28.7000516 122.105133,30.7234374 124.88247,33.5060344 C132.442117,41.0734269 126.772822,54.3190123 126.772822,54.3190123 C126.772822,54.3190123 140,59.9936739 140,73.2374936 C140,86.4830789 126.772822,90.2667752 126.772822,90.2667752" id="Fill-5" fill="#FCF3E4"></path>
                <path d="M126.772822,90.2667752 C126.772822,90.2667752 132.442117,99.7268987 126.772822,107.296057 C119.213175,118.647146 107.874587,112.970718 107.874587,112.970718 C107.874587,112.970718 105.985998,124.323573 98.428114,126.216304 C90.8684671,128.109035 83.3105836,122.432607 83.3105836,122.432607 C83.3105836,122.432607 77.6412893,130 71.971995,130 C66.3027007,130 62.5219956,122.432607 62.5219956,122.432607 C62.5219956,122.432607 56.8544646,130 45.515876,126.216304 C34.1772874,122.432607 34.1772874,112.970718 34.1772874,112.970718 C34.1772874,112.970718 26.6194039,116.75618 19.0615204,111.079753 C7.72293176,101.61963 15.2808153,88.3758099 15.2808153,88.3758099 C15.2808153,88.3758099 2.05363745,88.3758099 0.163284878,73.2374936 C-1.7253043,58.1027085 13.3922261,52.4262813 13.3922261,52.4262813 C13.3922261,52.4262813 7.72293176,44.8571232 11.5018735,33.5060344 C13.0518921,28.8518938 16.9648514,26.2776385 21.0647298,24.8404342 C26.9773718,22.778205 33.2338745,23.0995455 33.2338745,23.0995455 C33.2338745,20.8095529 33.2338745,17.1211994 35.7661005,13.3163159 C37.3901814,10.839169 40.11109,8.30375701 44.5724631,6.07026388 C55.9092883,0.395602283 65.3575244,9.85572575 65.3575244,9.85572575 C65.3575244,9.85572575 77.6412893,-4.33622506 90.8684671,1.34020214 C99.2198755,5.14332009 103.30212,9.87338182 105.192473,14.1496825 C108.006841,20.5252902 105.985998,25.9368763 105.985998,25.9368763 C109.576257,24.7450914 113.147119,25.0487758 117.209966,27.3758462 C119.572907,28.7000516 122.105133,30.7234374 124.88247,33.5060344 C132.442117,41.0734269 126.772822,54.3190123 126.772822,54.3190123 C126.772822,54.3190123 140,59.9936739 140,73.2374936 C140,86.4830789 126.772822,90.2667752 126.772822,90.2667752 Z" id="Stroke-7" stroke="#67503E" stroke-width="2" stroke-linecap="round" stroke-linejoin="round"></path>
                <path d="M36,13.0029688 C33.4568246,16.9627612 33.4568246,20.8048996 33.4568246,23.1892314 C33.4568246,23.1892314 27.1750395,22.8528145 21.2350601,25 C18.1410994,20.2533965 15.9007673,14.5196023 21.1217152,12.3521951 C27.5363263,9.69395002 33.0778277,11.5249404 36,13.0029688" id="Fill-9" fill="#FCF3E4"></path>
                <path d="M36,13.0029688 C33.4568246,16.9627612 33.4568246,20.8048996 33.4568246,23.1892314 C33.4568246,23.1892314 27.1750395,22.8528145 21.2350601,25 C18.1410994,20.2533965 15.9007673,14.5196023 21.1217152,12.3521951 C27.5363263,9.69395002 33.0778277,11.5249404 36,13.0029688 Z" id="Stroke-11" stroke="#67503E" stroke-width="2" stroke-linecap="round" stroke-linejoin="round"></path>
                <path d="M86,73.9912762 C86.0071147,81.724076 80.414965,87.9947624 73.5106807,88 C66.6063965,88.005231 61.0053449,81.7415236 61,74.0087238 C60.9946627,66.2776688 66.5868124,60.0052376 73.4893163,60 C80.3936005,59.994769 85.9946521,66.2584764 86,73.9912762" id="Fill-13" fill="#F4E3CA"></path>
                <path d="M78,67.4965105 C78.0017934,69.4297101 75.9882346,70.9982538 73.5026919,71 C71.0171492,71.0017433 69,69.4366891 69,67.5034895 C68.9982066,65.5702899 71.0117654,64.0017462 73.4973081,64 C75.9828508,63.9982567 77.9982042,65.5633109 78,67.4965105" id="Fill-15" fill="#67503E"></path>
                <path d="M72.9966766,71 L73,76.1406584 C73,76.1406584 73.0016617,76.998289 70.5008308,77 C68,77.0017059 68,76.1457837 68,76.1457837" id="Stroke-17" stroke="#67503E" stroke-width="2" stroke-linecap="round" stroke-linejoin="round"></path>
                <path d="M73,76.5019985 C73,76.5019985 73.8341642,77.5039985 75.5008308,77.5019985 C77.1674975,77.5019985 78,76.4979985 78,76.4979985" id="Stroke-19" stroke="#67503E" stroke-width="2" stroke-linecap="round" stroke-linejoin="round"></path>
                <path d="M105,74.4975075 C105,75.8783639 103.210014,76.9983365 101.001773,77 C98.7935323,77.0016598 97,75.8833489 97,74.5024925 C96.9982291,73.1216361 98.7882155,72.0016635 100.998228,72 C103.206469,71.9983402 104.998228,73.1166511 105,74.4975075" id="Fill-21" fill="#FCDBDB"></path>
                <path d="M53,74.4975075 C53.0017709,75.8783639 51.2117845,76.9983365 49.0035439,77 C46.7935309,77.0016598 45.0017723,75.8833489 45,74.5024925 C45,73.1216361 46.7899864,72.0016635 48.9982271,72 C51.20824,71.9983402 53,73.1166511 53,74.4975075" id="Fill-23" fill="#FCDBDB"></path>
                <path d="M57,54.5 C57,58.0898571 54.9857143,61 52.5,61 C50.0142857,61 48,58.0898571 48,54.5 C48,50.9101429 50.0142857,48 52.5,48 C54.9857143,48 57,50.9101429 57,54.5" id="Fill-25" fill="#67503E"></path>
                <path d="M94,56 C93.9982567,53.2434407 95.5633112,51.0016606 97.4965112,51 C99.4297112,51 100.998255,53.238459 101,55.9950183" id="Stroke-27" stroke="#67503E" stroke-width="2" stroke-linecap="round" stroke-linejoin="round"></path>
            </g>
        </g>
    </g>
</svg>