<?xml version="1.0" encoding="UTF-8"?>
<svg width="155px" height="144px" viewBox="0 0 155 144" version="1.1" xmlns="http://www.w3.org/2000/svg" xmlns:xlink="http://www.w3.org/1999/xlink">
    <title>wink-llama</title>
    <g id="home" stroke="none" stroke-width="1" fill="none" fill-rule="evenodd">
        <g id="Desktop-revision-1" transform="translate(-35.000000, -1706.000000)">
            <g id="section-1" transform="translate(36.000000, 1145.000000)">
                <g id="pt-3" transform="translate(0.000000, 562.000000)">
                    <g id="wink-llama">
                        <path d="M128.25062,30 C123.77088,27.4135649 119.833609,27.0760332 115.874949,28.4026114 C115.874949,28.4026114 118.103153,22.3878743 115,15.2997077 C115,15.2997077 127.332896,10.5271659 129.419164,14.7325759 C130.834637,17.5917837 129.355001,25.3726753 128.25062,30" id="Fill-1" fill="#FCF3E4"></path>
                        <path d="M128.25062,30 C123.77088,27.4135649 119.833609,27.0760332 115.874949,28.4026114 C115.874949,28.4026114 118.103153,22.3878743 115,15.2997077 C115,15.2997077 127.332896,10.5271659 129.419164,14.7325759 C130.834637,17.5917837 129.355001,25.3726753 128.25062,30 Z" id="Stroke-3" stroke="#67503E" stroke-width="1.072" stroke-linecap="round" stroke-linejoin="round"></path>
                        <path d="M138.544584,98.5990929 C138.544584,98.5990929 144.740313,108.932459 138.544584,117.200308 C130.28297,129.59919 117.891513,123.398785 117.891513,123.398785 C117.891513,123.398785 115.827554,135.799595 107.567867,137.867039 C99.3062534,139.934484 91.0465664,133.734079 91.0465664,133.734079 C91.0465664,133.734079 84.8508376,142 78.6551088,142 C72.45938,142 68.3276094,133.734079 68.3276094,133.734079 C68.3276094,133.734079 62.1338078,142 49.7423502,137.867039 C37.3508926,133.734079 37.3508926,123.398785 37.3508926,123.398785 C37.3508926,123.398785 29.0912057,127.533674 20.8315187,121.333269 C8.44006114,110.999903 16.6997481,96.5335769 16.6997481,96.5335769 C16.6997481,96.5335769 2.24433235,96.5335769 0.178447045,79.9978776 C-1.88551113,63.4660355 14.6357899,57.2656304 14.6357899,57.2656304 C14.6357899,57.2656304 8.44006114,48.9977807 12.5699046,36.5988991 C14.2638535,31.5151455 18.540159,28.7032666 23.0207405,27.1333973 C29.4824134,24.8808085 36.3198771,25.2318112 36.3198771,25.2318112 C36.3198771,22.7304347 36.3198771,18.7016179 39.0872384,14.5455143 C40.8621268,11.8397076 43.8356912,9.07025765 48.7113347,6.63059593 C61.1008651,0.432119417 71.4264374,10.765485 71.4264374,10.765485 C71.4264374,10.765485 84.8508376,-4.73649199 99.3062534,1.46391311 C108.43315,5.6180881 112.89446,10.7847709 114.960345,15.455807 C118.036047,22.4199323 115.827554,28.3310495 115.827554,28.3310495 C119.751195,27.0292537 123.653637,27.3609705 128.093748,29.9028473 C130.676105,31.3492871 133.443466,33.559447 136.478699,36.5988991 C144.740313,44.8648202 138.544584,59.3330749 138.544584,59.3330749 C138.544584,59.3330749 153,65.5315515 153,79.9978776 C153,94.4661324 138.544584,98.5990929 138.544584,98.5990929" id="Fill-5" fill="#FCF3E4"></path>
                        <path d="M138.544584,98.5990929 C138.544584,98.5990929 144.740313,108.932459 138.544584,117.200308 C130.28297,129.59919 117.891513,123.398785 117.891513,123.398785 C117.891513,123.398785 115.827554,135.799595 107.567867,137.867039 C99.3062534,139.934484 91.0465664,133.734079 91.0465664,133.734079 C91.0465664,133.734079 84.8508376,142 78.6551088,142 C72.45938,142 68.3276094,133.734079 68.3276094,133.734079 C68.3276094,133.734079 62.1338078,142 49.7423502,137.867039 C37.3508926,133.734079 37.3508926,123.398785 37.3508926,123.398785 C37.3508926,123.398785 29.0912057,127.533674 20.8315187,121.333269 C8.44006114,110.999903 16.6997481,96.5335769 16.6997481,96.5335769 C16.6997481,96.5335769 2.24433235,96.5335769 0.178447045,79.9978776 C-1.88551113,63.4660355 14.6357899,57.2656304 14.6357899,57.2656304 C14.6357899,57.2656304 8.44006114,48.9977807 12.5699046,36.5988991 C14.2638535,31.5151455 18.540159,28.7032666 23.0207405,27.1333973 C29.4824134,24.8808085 36.3198771,25.2318112 36.3198771,25.2318112 C36.3198771,22.7304347 36.3198771,18.7016179 39.0872384,14.5455143 C40.8621268,11.8397076 43.8356912,9.07025765 48.7113347,6.63059593 C61.1008651,0.432119417 71.4264374,10.765485 71.4264374,10.765485 C71.4264374,10.765485 84.8508376,-4.73649199 99.3062534,1.46391311 C108.43315,5.6180881 112.89446,10.7847709 114.960345,15.455807 C118.036047,22.4199323 115.827554,28.3310495 115.827554,28.3310495 C119.751195,27.0292537 123.653637,27.3609705 128.093748,29.9028473 C130.676105,31.3492871 133.443466,33.559447 136.478699,36.5988991 C144.740313,44.8648202 138.544584,59.3330749 138.544584,59.3330749 C138.544584,59.3330749 153,65.5315515 153,79.9978776 C153,94.4661324 138.544584,98.5990929 138.544584,98.5990929 Z" id="Stroke-7" stroke="#67503E" stroke-width="1.072" stroke-linecap="round" stroke-linejoin="round"></path>
                        <path d="M39,14.1460379 C36.1742495,18.3886727 36.1742495,22.5052496 36.1742495,25.0598908 C36.1742495,25.0598908 29.1944884,24.6994441 22.5945112,27 C19.1567772,21.9143534 16.6675192,15.7710025 22.4685725,13.4487804 C29.5959181,10.6006607 35.7531418,12.5624361 39,14.1460379" id="Fill-9" fill="#FCF3E4"></path>
                        <path d="M39,14.1460379 C36.1742495,18.3886727 36.1742495,22.5052496 36.1742495,25.0598908 C36.1742495,25.0598908 29.1944884,24.6994441 22.5945112,27 C19.1567772,21.9143534 16.6675192,15.7710025 22.4685725,13.4487804 C29.5959181,10.6006607 35.7531418,12.5624361 39,14.1460379 Z" id="Stroke-11" stroke="#67503E" stroke-width="1.072" stroke-linecap="round" stroke-linejoin="round"></path>
                        <path d="M94,80.4903415 C94.0076839,89.0516555 87.9681622,95.9942013 80.5115352,96 C73.0549083,96.0057915 67.0057725,89.0709726 67,80.5096585 C66.9942357,71.9502762 73.0337574,65.0057987 80.4884616,65 C87.9450885,64.9942085 93.9942243,71.9290274 94,80.4903415" id="Fill-13" fill="#F4E3CA"></path>
                        <path d="M85,73.996012 C85.0019927,76.2053829 82.7647051,77.9980043 80.002991,78 C77.2412769,78.0019924 75,76.213359 75,74.003988 C74.9980073,71.7946171 77.2352949,70.0019957 79.997009,70 C82.7587231,69.9980076 84.9980047,71.786641 85,73.996012" id="Fill-15" fill="#67503E"></path>
                        <path d="M79.996012,78 L80,83.9974348 C80,83.9974348 80.001994,84.9980039 77.000997,85 C74,85.0019902 74,84.0034143 74,84.0034143" id="Stroke-17" stroke="#67503E" stroke-width="1.072" stroke-linecap="round" stroke-linejoin="round"></path>
                        <path d="M80,84.5019985 C80,84.5019985 81.000997,85.5039985 83.000997,85.5019985 C85.000997,85.5019985 86,84.4979985 86,84.4979985" id="Stroke-19" stroke="#67503E" stroke-width="1.072" stroke-linecap="round" stroke-linejoin="round"></path>
                        <path d="M115,80.997009 C115,82.6540367 112.986265,83.9980038 110.501995,84 C108.017724,84.0019918 106,82.6600187 106,81.002991 C105.998008,79.3459633 108.011742,78.0019962 110.498007,78 C112.982278,77.9980082 114.998006,79.3399813 115,80.997009" id="Fill-21" fill="#FCDBDB"></path>
                        <path d="M58,80.997009 C58.0019923,82.6540367 55.9882576,83.9980038 53.5039869,84 C51.0177223,84.0019918 49.0019938,82.6600187 49,81.002991 C49,79.3459633 51.0137347,78.0019962 53.4980055,78 C55.98427,77.9980082 58,79.3399813 58,80.997009" id="Fill-23" fill="#FCDBDB"></path>
                        <path d="M62,60 C62,63.866 59.7619048,67 57,67 C54.2380952,67 52,63.866 52,60 C52,56.134 54.2380952,53 57,53 C59.7619048,53 62,56.134 62,60" id="Fill-25" fill="#67503E"></path>
                        <path d="M103,61 C102.998008,57.6921289 104.786641,55.0019927 106.996013,55 C109.205384,55 110.998006,57.6861508 111,60.9940219" id="Stroke-27" stroke="#67503E" stroke-width="1.072" stroke-linecap="round" stroke-linejoin="round"></path>
                    </g>
                </g>
            </g>
        </g>
    </g>
</svg>