<?xml version="1.0" encoding="UTF-8"?>
<svg width="367px" height="507px" viewBox="0 0 367 507" version="1.1" xmlns="http://www.w3.org/2000/svg" xmlns:xlink="http://www.w3.org/1999/xlink">
    <title>llama-mascot</title>
    <g id="ui-kit" stroke="none" stroke-width="1" fill="none" fill-rule="evenodd">
        <g id="llama-illustrations" transform="translate(-622.000000, -91.000000)">
            <g id="llama-mascot" transform="translate(805.500000, 345.000000) scale(-1, 1) translate(-805.500000, -345.000000) translate(623.000000, 93.000000)">
                <path d="M121.779545,386.533165 C123.656818,388.271646 124.818182,390.759747 124.818182,393.518987 C124.818182,397.761519 122.05,401.366076 118.231818,402.626076 C118.375,403.28 118.454545,403.981772 118.454545,404.683544 C118.454545,408.256203 116.497727,411.366329 113.602273,413.025063 C113.65,413.423797 113.681818,413.838481 113.681818,414.253165 C113.681818,417.522785 112.043182,420.40962 109.545455,422.132152 C111.136364,423.822785 112.090909,426.103544 112.090909,428.607595 C112.090909,432.307848 109.990909,435.513671 106.936364,437.108608 C109.1,438.847089 110.5,441.542532 110.5,444.556962 C110.5,447.938228 108.734091,450.920759 106.093182,452.611392 C106.872727,453.998987 107.318182,455.609873 107.318182,457.316456 C107.318182,461.016709 105.202273,464.238481 102.131818,465.833418 C103.404545,467.444304 104.136364,469.469873 104.136364,471.670886 C104.136364,476.950127 99.8568182,481.240506 94.5909091,481.240506 C94.4,481.240506 94.2090909,481.240506 94.0340909,481.208608 C94.4,482.213418 94.5909091,483.297975 94.5909091,484.43038 C94.5909091,484.701519 94.575,484.972658 94.5590909,485.227848 C94.1454545,490.140253 90.0409091,494 85.0454545,494 C80.05,494 75.9454545,490.140253 75.5318182,485.227848 C75.5159091,484.972658 75.5,484.701519 75.5,484.43038 C75.5,483.888101 75.5477273,483.345823 75.6431818,482.835443 L75.5,482.835443 C70.2340909,482.835443 65.9545455,478.545063 65.9545455,473.265823 L65.9545455,473.122278 C61.4363636,472.372658 58,468.433165 58,463.696203 C58,458.624304 61.9454545,454.477468 66.925,454.158481 L77.0909091,371.189873 L111.359091,371.189873 C113.093182,369.228101 115.638636,368 118.454545,368 C123.720455,368 128,372.29038 128,377.56962 C128,381.684557 125.406818,385.193418 121.779545,386.533165" id="left-leg" stroke="#67503E" stroke-width="2" fill="#F3EADB" stroke-linecap="round" stroke-linejoin="round"></path>
                <path d="M94,485 C93.5869565,490.04 89.4882943,494 84.5,494 C79.5117057,494 75.4130435,490.04 75,485 L94,485 Z" id="left-foot-2" fill="#6B3329"></path>
                <path d="M297.713333,396.533165 C299.610588,398.271646 300.784314,400.759747 300.784314,403.518987 C300.784314,407.761519 297.986667,411.366076 294.127843,412.626076 C294.272549,413.28 294.352941,413.981772 294.352941,414.683544 C294.352941,418.256203 292.375294,421.366329 289.44902,423.025063 C289.497255,423.423797 289.529412,423.838481 289.529412,424.253165 C289.529412,427.522785 287.873333,430.40962 285.34902,432.132152 C286.956863,433.822785 287.921569,436.103544 287.921569,438.607595 C287.921569,442.307848 285.799216,445.513671 282.712157,447.108608 C284.898824,448.847089 286.313725,451.542532 286.313725,454.556962 C286.313725,457.938228 284.52902,460.920759 281.86,462.611392 C282.647843,463.998987 283.098039,465.609873 283.098039,467.316456 C283.098039,471.016709 280.959608,474.238481 277.856471,475.833418 C279.142745,477.444304 279.882353,479.469873 279.882353,481.670886 C279.882353,486.950127 275.557255,491.240506 270.235294,491.240506 C270.042353,491.240506 269.849412,491.240506 269.672549,491.208608 C269.961961,491.974177 270.138824,492.787595 270.203137,493.632911 C270.219216,493.904051 270.235294,494.159241 270.235294,494.43038 C270.235294,499.70962 265.910196,504 260.588235,504 C255.266275,504 250.941176,499.70962 250.941176,494.43038 C250.941176,494.159241 250.957255,493.904051 250.973333,493.632911 C251.00549,493.361772 251.037647,493.090633 251.085882,492.835443 L250.941176,492.835443 C245.619216,492.835443 241.294118,488.545063 241.294118,483.265823 L241.294118,483.122278 C236.727843,482.372658 233.254902,478.433165 233.254902,473.696203 C233.254902,470.841266 234.50902,468.273418 236.518824,466.534937 L222,414.683544 L284.721961,387.82481 C284.705882,387.745063 284.705882,387.649367 284.705882,387.56962 C284.705882,382.29038 289.03098,378 294.352941,378 C299.674902,378 304,382.29038 304,387.56962 C304,391.684557 301.379216,395.193418 297.713333,396.533165" id="right-leg" stroke="#67503E" stroke-width="2" fill="#F3EADB" stroke-linecap="round" stroke-linejoin="round"></path>
                <path d="M270,494.769231 C270,499.861538 265.740833,504 260.5,504 C255.259167,504 251,499.861538 251,494.769231 C251,494.507692 251.015833,494.261538 251.031667,494 L269.968333,494 C269.984167,494.261538 270,494.507692 270,494.769231" id="right-foot-2" fill="#6B3329"></path>
                <path d="M360.69364,92.6423656 C363.287061,94.3533526 365,97.2956106 365,100.637632 C365,103.979653 363.287061,106.921911 360.69364,108.632898 C363.287061,110.343885 365,113.286143 365,116.628164 C365,119.970186 363.287061,122.912444 360.69364,124.623431 C363.287061,126.334418 365,129.276676 365,132.618697 C365,135.960718 363.287061,138.902976 360.69364,140.613963 C363.287061,142.32495 365,145.267208 365,148.60923 C365,151.951251 363.287061,154.893509 360.69364,156.604496 C363.287061,158.315483 365,161.257741 365,164.599762 C365,167.941784 363.287061,170.884042 360.69364,172.595029 C363.287061,174.306016 365,177.248274 365,180.590295 C365,183.932316 363.287061,186.874574 360.69364,188.585561 C363.287061,190.296548 365,193.238806 365,196.580827 C365,199.922849 363.287061,202.865107 360.69364,204.576094 C363.287061,206.287081 365,209.229339 365,212.57136 C365,215.913381 363.287061,218.855639 360.69364,220.566626 C363.287061,222.277613 365,225.219871 365,228.561893 C365,231.903914 363.287061,234.846172 360.69364,236.557159 C363.287061,238.268146 365,241.210404 365,244.552425 C365,247.894447 363.287061,250.836705 360.69364,252.547692 C363.287061,254.258679 365,257.200937 365,260.542958 C365,264.252761 362.886842,267.466858 359.813158,269.065912 C361.990351,270.80888 363.399123,273.51128 363.399123,276.53349 C363.399123,280.659048 360.789693,284.176965 357.139693,285.52017 C359.028728,287.263138 360.197368,289.757661 360.197368,292.524023 C360.197368,297.097315 356.995614,300.919053 352.705263,301.878485 C354.386184,303.589472 355.394737,305.924089 355.394737,308.514556 C355.394737,313.087848 352.192982,316.909585 347.902632,317.869017 C349.583553,319.580004 350.592105,321.914622 350.592105,324.505088 C350.592105,329.446163 346.830044,333.523749 342.011404,334.051436 C342.395614,335.05884 342.587719,336.162186 342.587719,337.297514 C342.587719,342.238589 338.825658,346.316175 334.007018,346.843862 C334.391228,347.851266 334.583333,348.954613 334.583333,350.08994 C334.583333,355.382807 330.276974,359.68426 324.97807,359.68426 L324.833991,359.68426 C324.930044,360.195957 324.97807,360.739635 324.97807,361.283313 C324.97807,366.032501 321.520175,369.982163 316.973684,370.733718 L316.973684,370.877633 C316.973684,376.170499 312.667325,380.471952 307.368421,380.471952 C306.231798,380.471952 305.127193,380.280066 304.11864,379.896293 C303.590351,384.709443 299.508114,388.467219 294.561404,388.467219 L294.417325,388.467219 C293.664912,393.00853 289.710746,396.462485 284.95614,396.462485 C284.251754,396.462485 283.547368,396.382532 282.891009,396.238617 C281.626316,400.076345 278.008333,402.858698 273.75,402.858698 C272.613377,402.858698 271.508772,402.666812 270.500219,402.283039 C269.97193,407.096189 265.889693,410.853964 260.942982,410.853964 C260.478728,410.853964 260.030482,410.821983 259.582237,410.74203 C260.446711,412.165188 260.942982,413.860184 260.942982,415.651124 C260.942982,419.840644 258.253509,423.406532 254.507456,424.701765 C255.548026,426.236857 256.140351,428.059777 256.140351,430.042603 C256.140351,433.944293 253.787061,437.318296 250.441228,438.805415 C251.017544,440.020696 251.337719,441.395881 251.337719,442.835029 C251.337719,446.177051 249.624781,449.119309 247.03136,450.830296 C249.624781,452.541283 251.337719,455.483541 251.337719,458.825562 C251.337719,462.535366 249.224561,465.749463 246.150877,467.348516 C246.407018,468.196014 246.535088,469.091484 246.535088,470.018935 C246.535088,473.296994 244.886184,476.19128 242.372807,477.918258 C243.973684,479.613254 244.934211,481.899901 244.934211,484.410414 C244.934211,488.344085 242.564912,491.734078 239.171053,493.205207 C238.002412,493.716904 236.689693,494.004734 235.328947,494.004734 L235.184868,494.004734 C234.432456,498.546045 230.478289,502 225.723684,502 C220.69693,502 216.566667,498.130291 216.150439,493.205207 C216.13443,492.949359 216.118421,492.677519 216.118421,492.40568 L216.118421,492.261766 C211.57193,491.510211 208.114035,487.560549 208.114035,482.811361 C208.114035,481.59608 208.338158,480.444762 208.754386,479.373396 C207.345614,477.710381 206.513158,475.56765 206.513158,473.217041 C206.513158,471.010348 207.249561,468.97955 208.530263,467.364506 C205.44057,465.765453 203.311404,462.535366 203.311404,458.825562 C203.311404,457.594291 203.551535,456.410992 203.983772,455.323635 C201.630482,453.580667 200.109649,450.782324 200.109649,447.632189 C200.109649,445.169647 201.038158,442.930973 202.575,441.235976 C201.038158,439.54098 200.109649,437.302305 200.109649,434.839763 C200.109649,432.856937 200.701974,431.034016 201.742544,429.498925 C197.996491,428.203692 195.307018,424.637803 195.307018,420.448284 C192.025219,420.448284 189.127632,418.801259 187.398684,416.290745 C185.701754,417.889799 183.4125,418.849231 180.899123,418.849231 C177.553289,418.849231 174.607675,417.138244 172.894737,414.547777 C171.181798,417.138244 168.236184,418.849231 164.890351,418.849231 C161.976754,418.849231 159.351316,417.538007 157.60636,415.491219 C156.053509,416.610556 154.148465,417.250177 152.083333,417.250177 C148.801535,417.250177 145.903947,415.603152 144.175,413.092639 C142.47807,414.691692 140.188816,415.651124 137.675439,415.651124 C133.961404,415.651124 130.74364,413.540374 129.142763,410.470191 C127.397807,412.644904 124.692325,414.052071 121.666667,414.052071 C117.952632,414.052071 114.734868,411.94132 113.133991,408.871138 C111.389035,411.045851 108.683553,412.453017 105.657895,412.453017 C103.448684,412.453017 101.41557,411.717453 99.7986842,410.43821 C98.197807,413.524383 94.9640351,415.651124 91.25,415.651124 C90.0173246,415.651124 88.8326754,415.411266 87.7440789,414.979522 C85.9991228,417.33013 83.1975877,418.849231 80.0438596,418.849231 C80.0438596,422.559034 77.9307018,425.773131 74.8570175,427.372184 C75.1131579,428.219683 75.2412281,429.115152 75.2412281,430.042603 C75.2412281,432.904909 73.9765351,435.479384 71.9754386,437.238343 C73.9765351,438.997302 75.2412281,441.571777 75.2412281,444.434083 C75.2412281,447.824076 73.4642544,450.814305 70.8067982,452.509302 C71.5912281,453.900478 72.0394737,455.515522 72.0394737,457.226509 C72.0394737,460.136786 70.7267544,462.759233 68.6776316,464.502201 C69.7982456,466.053283 70.4385965,467.956156 70.4385965,470.018935 C70.4385965,473.568833 68.5015351,476.670996 65.6199561,478.334012 C65.491886,482.379617 62.8504386,485.80159 59.2004386,487.064843 C59.2324561,487.240738 59.2324561,487.416634 59.2324561,487.608521 C59.2324561,492.901387 54.9260965,497.20284 49.627193,497.20284 C44.3282895,497.20284 40.0219298,492.901387 40.0219298,487.608521 C40.0219298,487.416634 40.0219298,487.240738 40.0539474,487.064843 C36.3078947,485.769609 33.6184211,482.203721 33.6184211,478.014201 C33.6184211,477.598447 33.6504386,477.182693 33.6984649,476.78293 C30.7848684,475.119915 28.8157895,472.001761 28.8157895,468.419882 C28.8157895,466.708895 29.2640351,465.093851 30.0484649,463.702674 C27.3910088,462.007678 25.6140351,459.017448 25.6140351,455.627455 C25.6140351,453.116942 26.5745614,450.830296 28.1754386,449.135299 C25.6620614,447.408322 24.0131579,444.514035 24.0131579,441.235976 C24.0131579,438.469614 25.1817982,435.975091 27.0708333,434.232123 C23.4208333,432.888918 20.8114035,429.371001 20.8114035,425.245444 C20.8114035,422.479081 21.9800439,419.984558 23.8690789,418.24159 C20.2190789,416.898386 17.6096491,413.380468 17.6096491,409.254911 C17.6096491,406.2327 19.0184211,403.5303 21.195614,401.787332 C18.1219298,400.188279 16.0087719,396.974182 16.0087719,393.264378 C16.0087719,390.242168 17.4175439,387.539768 19.5947368,385.7968 C16.5210526,384.197746 14.4078947,380.983649 14.4078947,377.273846 C14.4078947,374.683379 15.4164474,372.348762 17.0973684,370.637775 C12.8070175,369.678343 9.60526316,365.856605 9.60526316,361.283313 C9.60526316,358.261103 11.0140351,355.558703 13.1912281,353.815734 C10.1175439,352.216681 8.00438596,349.002584 8.00438596,345.292781 C8.00438596,343.230002 8.64473684,341.327128 9.76535088,339.776047 C7.71622807,338.033079 6.40350877,335.410631 6.40350877,332.500355 C6.40350877,329.478144 7.8122807,326.775744 9.98947368,325.032776 C6.91578947,323.433723 4.80263158,320.219625 4.80263158,316.509822 C4.80263158,313.999308 5.76315789,311.712662 7.36403509,310.017666 C4.85065789,308.290688 3.20175439,305.396402 3.20175439,302.118343 C3.20175439,298.408539 5.31491228,295.194442 8.38859649,293.595389 C6.21140351,291.852421 4.80263158,289.150021 4.80263158,286.12781 C4.80263158,281.93829 7.49210526,278.372402 11.2381579,277.077169 C10.1975877,275.542077 9.60526316,273.719157 9.60526316,271.736331 C9.60526316,267.80266 11.9745614,264.412667 15.3684211,262.941538 C11.9745614,261.470409 9.60526316,258.080416 9.60526316,254.146745 C9.60526316,253.954858 9.60526316,253.778963 9.6372807,253.603067 C5.89122807,252.307834 3.20175439,248.741945 3.20175439,244.552425 C3.20175439,242.345732 3.93815789,240.314934 5.21885965,238.69989 C2.12916667,237.100837 0,233.870749 0,230.160946 C0,225.955436 2.70548246,222.389547 6.46754386,221.094314 C6.99583333,216.297154 11.0780702,212.57136 16.0087719,212.57136 C18.4741228,212.57136 20.7153509,213.498811 22.4122807,215.033902 C24.1092105,213.498811 26.3504386,212.57136 28.8157895,212.57136 C33.4903509,212.57136 37.3964912,215.929372 38.2449561,220.358749 C39.6857456,219.47927 41.3986842,218.967573 43.2236842,218.967573 C46.9377193,218.967573 50.1554825,221.078323 51.7563596,224.148506 C53.5013158,221.973793 56.2067982,220.566626 59.2324561,220.566626 C61.697807,220.566626 63.9390351,221.494077 65.6359649,223.029168 C67.3328947,221.494077 69.5741228,220.566626 72.0394737,220.566626 C74.2486842,220.566626 76.2817982,221.302191 77.8986842,222.581433 C79.4995614,219.495261 82.7333333,217.36852 86.4473684,217.36852 C89.3129386,217.36852 91.8903509,218.631772 93.6513158,220.630588 C95.4122807,218.631772 97.989693,217.36852 100.855263,217.36852 C103.720833,217.36852 106.298246,218.631772 108.059211,220.630588 C109.820175,218.631772 112.397588,217.36852 115.263158,217.36852 C118.128728,217.36852 120.70614,218.631772 122.467105,220.630588 C124.22807,218.631772 126.805482,217.36852 129.671053,217.36852 C132.536623,217.36852 135.114035,218.631772 136.875,220.630588 C138.635965,218.631772 141.213377,217.36852 144.078947,217.36852 C146.944518,217.36852 149.52193,218.631772 151.282895,220.630588 C153.04386,218.631772 155.621272,217.36852 158.486842,217.36852 C161.000219,217.36852 163.289474,218.327952 164.986404,219.927005 C166.715351,217.416491 169.612939,215.769467 172.894737,215.769467 C175.360088,215.769467 177.601316,216.696917 179.298246,218.232009 C180.995175,216.696917 183.236404,215.769467 185.701754,215.769467 C188.215132,215.769467 190.504386,216.728899 192.201316,218.327952 C193.930263,215.817438 196.827851,214.170413 200.109649,214.170413 C202.879167,214.170413 205.376535,215.337722 207.121491,217.224605 C208.466228,213.578764 211.988158,210.972307 216.118421,210.972307 C217.943421,210.972307 219.65636,211.484004 221.097149,212.363483 C221.945614,207.934106 225.851754,204.576094 230.526316,204.576094 C230.718421,204.576094 230.910526,204.576094 231.086623,204.608075 C230.718421,203.600671 230.526316,202.513315 230.526316,201.377987 C230.526316,197.124506 233.311842,193.510645 237.153947,192.247393 C237.009868,191.591781 236.929825,190.888198 236.929825,190.184614 C236.929825,186.842593 238.642763,183.900335 241.236184,182.189348 C238.642763,180.478361 236.929825,177.536103 236.929825,174.194082 C236.929825,170.852061 238.642763,167.909803 241.236184,166.198816 C238.642763,164.487829 236.929825,161.545571 236.929825,158.203549 C236.929825,154.861528 238.642763,151.91927 241.236184,150.208283 C238.642763,148.497296 236.929825,145.555038 236.929825,142.213017 C236.929825,138.870995 238.642763,135.928737 241.236184,134.21775 C238.642763,132.506763 236.929825,129.564505 236.929825,126.222484 C236.929825,122.880463 238.642763,119.938205 241.236184,118.227218 C238.642763,116.516231 236.929825,113.573973 236.929825,110.231951 C236.929825,106.88993 238.642763,103.947672 241.236184,102.236685 C238.642763,100.525698 236.929825,97.5834402 236.929825,94.2414189 C236.929825,90.8993976 238.642763,87.9571396 241.236184,86.2461526 C238.642763,84.5351656 236.929825,81.5929076 236.929825,78.2508863 C236.929825,73.3098117 240.691886,69.2322259 245.510526,68.7045383 C245.126316,67.6971348 244.934211,66.593788 244.934211,65.4584602 C244.934211,62.0684673 246.695175,59.0942282 249.36864,57.3832412 C249.24057,54.0412199 249.320614,50.171511 249.512719,46.1099158 C250.201096,32.9177264 252.378289,17.5987961 254.539474,11.0906494 C254.555482,11.0426778 254.571491,11.0106967 254.5875,10.9627251 C256.876754,4.1827393 260.782895,-0.150695037 266.882237,1.36840556 C271.957018,2.64764817 275.350877,7.44480794 275.350877,12.6737121 L275.350877,37.2351702 C275.462939,37.2671512 275.575,37.2991323 275.687061,37.3471039 C276.791667,33.2855086 280.537719,30.2792885 284.95614,30.2792885 C288.414035,30.2792885 291.455702,32.1181997 293.136623,34.8685713 C294.689474,31.6864554 297.971272,29.4797619 301.765351,29.4797619 C305.303289,29.4797619 308.392982,31.3826352 310.041886,34.22895 C311.194518,33.7492341 312.443202,33.477395 313.77193,33.477395 C316.733553,33.477395 319.391009,34.8205997 321.167982,36.93135 C321.872368,36.7714447 322.608772,36.6755015 323.377193,36.6755015 C323.921491,36.6755015 324.449781,36.7234731 324.97807,36.8194163 L324.97807,12.8336174 C324.97807,9.07584227 326.402851,5.38202924 329.236404,2.93547775 C333.366667,-0.630411015 338.745614,-0.742344743 340.986842,1.49632982 C343.420175,4.53453101 345.165132,8.72405055 346.381798,14.8004529 C347.886623,22.188079 348.591009,32.3260767 348.863158,46.5256696 C348.895175,48.668401 348.927193,50.891085 348.943202,53.2097122 C351.712719,54.1531537 353.889912,56.3438566 354.850439,59.0942282 C355.026535,59.0622472 355.202632,59.0622472 355.394737,59.0622472 C360.69364,59.0622472 365,63.3637004 365,68.6565667 C365,71.998588 363.287061,74.940846 360.69364,76.651833 C363.287061,78.36282 365,81.305078 365,84.6470993 C365,87.9891206 363.287061,90.9313786 360.69364,92.6423656" id="body" stroke="#67503E" stroke-width="2" fill="#FCF3E4" stroke-linecap="round" stroke-linejoin="round"></path>
                <path d="M59,488 C59,493.516667 54.7408333,498 49.5,498 C44.2591667,498 40,493.516667 40,488 L59,488 Z" id="left-foot-1" fill="#6B3329"></path>
                <path d="M239,493 C237.832406,493.523636 236.520862,493.818182 235.161335,493.818182 L235.017385,493.818182 C234.265647,498.465455 230.315021,502 225.564673,502 C220.54242,502 216.415855,498.04 216,493 L239,493 Z" id="right-foot-1" fill="#6B3329"></path>
                <path d="M267,31.8280255 C267,38.1974522 263.717724,42.9745223 260.435449,44.566879 C258.66302,45.4267516 255.003282,45.8248408 252,46 C252.705689,32.8630573 254.937637,17.6082803 257.153173,11.1273885 C257.169584,11.0796178 257.185996,11.0477707 257.202407,11 C258.745077,11.2866242 260.583151,12.1464968 262.076586,14.3121019 C265.358862,19.089172 267,25.4585987 267,31.8280255" id="ear-left" fill="#F4E5C8"></path>
                <path d="M347,46 C341.92803,42.8548387 334,40.9032258 334,40.9032258 C334,40.9032258 334,34.4516129 337.282828,23.1612903 C338.694444,18.3387097 341.583333,15.5645161 344.455808,14 C345.998737,21.4516129 346.72096,31.6774194 347,46" id="ear-right" fill="#F4E5C8"></path>
                <path d="M320,113.5 C320,127.582375 309.926429,139 297.5,139 C285.073571,139 275,127.582375 275,113.5 C275,99.417625 285.073571,88 297.5,88 C309.926429,88 320,99.417625 320,113.5" id="nose-shape" fill="#F4E3CA"></path>
                <path d="M258,101 C258,95.4833333 260.90875,91 264.5,91 C268.09125,91 271,95.4833333 271,101" id="eye-left" stroke="#67503E" stroke-width="3" stroke-linecap="round" stroke-linejoin="round"></path>
                <path d="M326,101 C326,95.4833333 328.90875,91 332.5,91 C336.09125,91 339,95.4833333 339,101" id="eye-right" stroke="#67503E" stroke-width="3" stroke-linecap="round" stroke-linejoin="round"></path>
                <path d="M306,103.5 C306,107.089625 302.4176,110 298,110 C293.5824,110 290,107.089625 290,103.5 C290,99.910375 293.5824,97 298,97 C302.4176,97 306,99.910375 306,103.5" id="nose" fill="#67503E"></path>
                <path d="M298,110 L298,119.428571 C298,119.428571 298,121 293,121 C288,121 288,119.428571 288,119.428571" id="mouth-left" stroke="#67503E" stroke-width="3" stroke-linecap="round" stroke-linejoin="round"></path>
                <path d="M298,120 C298,120 299.666667,122 303,122 C306.333333,122 308,120 308,120" id="mouth-right" stroke="#67503E" stroke-width="3" stroke-linecap="round" stroke-linejoin="round"></path>
                <path d="M354,114 C354,116.761667 350.865556,119 347,119 C343.134444,119 340,116.761667 340,114 C340,111.238333 343.134444,109 347,109 C350.865556,109 354,111.238333 354,114" id="blush-right" fill="#FCDBDB"></path>
                <path d="M260,114 C260,116.761667 256.865556,119 253,119 C249.134444,119 246,116.761667 246,114 C246,111.238333 249.134444,109 253,109 C256.865556,109 260,111.238333 260,114" id="blush-left" fill="#FCDBDB"></path>
            </g>
        </g>
    </g>
</svg>