<?xml version="1.0" encoding="UTF-8"?>
<svg width="336px" height="312px" viewBox="0 0 336 312" version="1.1" xmlns="http://www.w3.org/2000/svg" xmlns:xlink="http://www.w3.org/1999/xlink">
    <title>wink-llama</title>
    <g id="care" stroke="none" stroke-width="1" fill="none" fill-rule="evenodd">
        <g id="Desktop-revision-1" transform="translate(-24.000000, -2384.000000)">
            <g id="pt-2" transform="translate(27.000000, 2194.000000)">
                <g id="wink-llama" transform="translate(0.000000, 193.000000)">
                    <path d="M277.26799,65 C267.711211,59.5228433 259.311698,58.8080702 250.866558,61.6172948 C250.866558,61.6172948 255.62006,48.8802044 249,33.8699693 C249,33.8699693 275.310178,23.7634101 279.760882,32.6689842 C282.780559,38.7237773 279.624002,55.2009595 277.26799,65" id="Fill-1" fill="#FCF3E4"></path>
                    <path d="M277.26799,65 C267.711211,59.5228433 259.311698,58.8080702 250.866558,61.6172948 C250.866558,61.6172948 255.62006,48.8802044 249,33.8699693 C249,33.8699693 275.310178,23.7634101 279.760882,32.6689842 C282.780559,38.7237773 279.624002,55.2009595 277.26799,65 Z" id="Stroke-3" stroke="#67503E" stroke-width="4" stroke-linecap="round" stroke-linejoin="round"></path>
                    <path d="M299.727172,213.168461 C299.727172,213.168461 313.131004,235.508907 299.727172,253.383765 C281.854007,280.189798 255.046344,266.784697 255.046344,266.784697 C255.046344,266.784697 250.58118,293.594899 232.712184,298.064656 C214.839019,302.534413 196.970023,289.129311 196.970023,289.129311 C196.970023,289.129311 183.566191,307 170.16236,307 C156.758528,307 147.819861,289.129311 147.819861,289.129311 C147.819861,289.129311 134.420199,307 107.612535,298.064656 C80.8048723,289.129311 80.8048723,266.784697 80.8048723,266.784697 C80.8048723,266.784697 62.9358763,275.72421 45.0668803,262.319109 C18.2592172,239.978664 36.1282132,208.702874 36.1282132,208.702874 C36.1282132,208.702874 4.85538567,208.702874 0.386052103,172.953158 C-4.07911231,137.211781 31.6630488,123.80668 31.6630488,123.80668 C31.6630488,123.80668 18.2592172,105.931822 27.1937152,79.125789 C30.858402,68.1348569 40.1097557,62.0556539 49.8030398,58.6616407 C63.7822147,53.7916071 78.5743747,54.5504651 78.5743747,54.5504651 C78.5743747,49.1425596 78.5743747,40.432371 84.5612805,31.4469921 C88.4010717,25.5971144 94.834077,19.6096415 105.382038,14.3351616 C132.185532,0.934230007 154.523861,23.2746754 154.523861,23.2746754 C154.523861,23.2746754 183.566191,-10.2401622 214.839019,3.16493891 C234.584134,12.1461482 244.235727,23.3163709 248.70506,33.4150194 C255.359031,48.4712621 250.58118,61.2509309 250.58118,61.2509309 C259.069578,58.4364851 267.512116,59.1536476 277.117848,64.6491136 C282.704515,67.7762756 288.691421,72.5545792 295.257839,79.125789 C313.131004,96.9964775 299.727172,128.276437 299.727172,128.276437 C299.727172,128.276437 331,141.677368 331,172.953158 C331,204.233117 299.727172,213.168461 299.727172,213.168461" id="Fill-5" fill="#FCF3E4"></path>
                    <path d="M299.727172,213.168461 C299.727172,213.168461 313.131004,235.508907 299.727172,253.383765 C281.854007,280.189798 255.046344,266.784697 255.046344,266.784697 C255.046344,266.784697 250.58118,293.594899 232.712184,298.064656 C214.839019,302.534413 196.970023,289.129311 196.970023,289.129311 C196.970023,289.129311 183.566191,307 170.16236,307 C156.758528,307 147.819861,289.129311 147.819861,289.129311 C147.819861,289.129311 134.420199,307 107.612535,298.064656 C80.8048723,289.129311 80.8048723,266.784697 80.8048723,266.784697 C80.8048723,266.784697 62.9358763,275.72421 45.0668803,262.319109 C18.2592172,239.978664 36.1282132,208.702874 36.1282132,208.702874 C36.1282132,208.702874 4.85538567,208.702874 0.386052103,172.953158 C-4.07911231,137.211781 31.6630488,123.80668 31.6630488,123.80668 C31.6630488,123.80668 18.2592172,105.931822 27.1937152,79.125789 C30.858402,68.1348569 40.1097557,62.0556539 49.8030398,58.6616407 C63.7822147,53.7916071 78.5743747,54.5504651 78.5743747,54.5504651 C78.5743747,49.1425596 78.5743747,40.432371 84.5612805,31.4469921 C88.4010717,25.5971144 94.834077,19.6096415 105.382038,14.3351616 C132.185532,0.934230007 154.523861,23.2746754 154.523861,23.2746754 C154.523861,23.2746754 183.566191,-10.2401622 214.839019,3.16493891 C234.584134,12.1461482 244.235727,23.3163709 248.70506,33.4150194 C255.359031,48.4712621 250.58118,61.2509309 250.58118,61.2509309 C259.069578,58.4364851 267.512116,59.1536476 277.117848,64.6491136 C282.704515,67.7762756 288.691421,72.5545792 295.257839,79.125789 C313.131004,96.9964775 299.727172,128.276437 299.727172,128.276437 C299.727172,128.276437 331,141.677368 331,172.953158 C331,204.233117 299.727172,213.168461 299.727172,213.168461 Z" id="Stroke-7" stroke="#67503E" stroke-width="4" stroke-linecap="round" stroke-linejoin="round"></path>
                    <path d="M85,31.5782143 C79.065924,40.6291684 79.065924,49.4111991 79.065924,54.8611004 C79.065924,54.8611004 64.4084255,54.0921475 50.5484736,59 C43.329232,48.1506205 38.1017904,35.0448053 50.2840022,30.0907316 C65.251428,24.0147429 78.1815979,28.1998637 85,31.5782143" id="Fill-9" fill="#FCF3E4"></path>
                    <path d="M85,31.5782143 C79.065924,40.6291684 79.065924,49.4111991 79.065924,54.8611004 C79.065924,54.8611004 64.4084255,54.0921475 50.5484736,59 C43.329232,48.1506205 38.1017904,35.0448053 50.2840022,30.0907316 C65.251428,24.0147429 78.1815979,28.1998637 85,31.5782143 Z" id="Stroke-11" stroke="#67503E" stroke-width="4" stroke-linecap="round" stroke-linejoin="round"></path>
                    <path d="M204,173.479125 C204.016791,191.98261 190.819317,206.987467 174.525207,207 C158.231096,207.012517 145.012614,192.02436 145,173.520875 C144.987404,155.021565 158.184877,140.012533 174.474786,140 C190.768897,139.987483 203.987379,154.97564 204,173.479125" id="Fill-13" fill="#F4E3CA"></path>
                    <path d="M185,160.491525 C185.004185,165.186439 180.305881,168.995759 174.506281,169 C168.706682,169.004234 164,165.203388 164,160.508475 C163.995815,155.813561 168.694119,152.004241 174.493719,152 C180.293318,151.995766 184.99581,155.796612 185,160.491525" id="Fill-15" fill="#67503E"></path>
                    <path d="M173.991359,169 L174,181.851646 C174,181.851646 174.00432,183.995723 167.50216,184 C161,184.004265 161,181.864459 161,181.864459" id="Stroke-17" stroke="#67503E" stroke-width="4" stroke-linecap="round" stroke-linejoin="round"></path>
                    <path d="M174,182.003997 C174,182.003997 176.168827,184.007997 180.50216,184.003997 C184.835494,184.003997 187,181.995997 187,181.995997" id="Stroke-19" stroke="#67503E" stroke-width="4" stroke-linecap="round" stroke-linejoin="round"></path>
                    <path d="M249,174.493519 C249,178.083746 244.748782,180.995675 239.504211,181 C234.259639,181.004316 230,178.096707 230,174.506481 C229.995794,170.916254 234.247012,168.004325 239.495792,168 C244.740364,167.995684 248.995791,170.903293 249,174.493519" id="Fill-21" fill="#FCDBDB"></path>
                    <path d="M125,174.493519 C125.004206,178.083746 120.752988,180.995675 115.508417,181 C110.259636,181.004316 106.004209,178.096707 106,174.506481 C106,170.916254 110.251218,168.004325 115.495789,168 C120.74457,167.995684 125,170.903293 125,174.493519" id="Fill-23" fill="#FCDBDB"></path>
                    <path d="M135,129.5 C135,137.508143 130.07619,144 124,144 C117.92381,144 113,137.508143 113,129.5 C113,121.491857 117.92381,115 124,115 C130.07619,115 135,121.491857 135,129.5" id="Fill-25" fill="#67503E"></path>
                    <path d="M223,131 C222.995766,123.832946 226.796613,118.004318 231.491527,118 C236.186441,118 239.995763,123.819993 240,130.987047" id="Stroke-27" stroke="#67503E" stroke-width="4" stroke-linecap="round" stroke-linejoin="round"></path>
                </g>
            </g>
        </g>
    </g>
</svg>